<svg height="32" viewBox="0 0 80 32" width="80" xmlns="http://www.w3.org/2000/svg"><g fill="#060809"><path d="m5.228 29.07c-.986 0-1.477-.484-1.477-1.285 0-1.481 1.658-1.988 4.683-2.308 0 1.981-1.34 3.593-3.206 3.593zm1.304-11.153c-2.161 0-4.649 1.02-6 2.096l1.234 2.596c1.083-.991 2.835-1.838 4.414-1.838 1.5 0 2.329.502 2.329 1.511 0 .682-.55 1.025-1.589 1.159-3.877.505-6.92 1.575-6.92 4.565 0 2.37 1.688 3.805 4.324 3.805 1.88 0 3.556-1.046 4.353-2.426v2.039h3.506v-8.544c0-3.529-2.453-4.962-5.652-4.962z"/><path d="m41.742 18.302v13.121h3.754v-6.321c0-3.006 1.818-3.888 3.087-3.888.495 0 1.163.143 1.605.474l.684-3.469c-.58-.247-1.186-.302-1.682-.302-1.93 0-3.142.855-3.943 2.591v-2.205h-3.504z"/><path d="m68.27 17.917c-1.985 0-3.467 1.173-4.24 2.304-.717-1.461-2.237-2.304-4.056-2.304-1.985 0-3.358 1.103-3.992 2.37v-1.985h-3.617v13.121h3.755v-6.754c0-2.426 1.269-3.587 2.455-3.587 1.073 0 2.059.695 2.059 2.485v7.857h3.75v-6.754c0-2.453 1.241-3.587 2.481-3.587.991 0 2.038.721 2.038 2.458v7.883h3.75v-9.069c0-2.949-1.985-4.437-4.383-4.437z"/><path d="m32.607 18.302h-3.4v-1.334c0-1.735.991-2.232 1.847-2.232.944 0 1.679.419 1.679.419l1.157-2.646s-1.173-.767-3.306-.767c-2.398 0-5.127 1.352-5.127 5.595v.965h-5.692v-1.334c0-1.735.991-2.232 1.845-2.232.486 0 1.14.113 1.681.419l1.157-2.646c-.691-.406-1.801-.767-3.306-.767-2.398 0-5.127 1.352-5.127 5.595v.965h-2.177v2.895h2.177v10.227h3.75v-10.227h5.692v10.227h3.75v-10.227h3.4z"/><path d="m34.846 31.424h3.746v-13.121h-3.746z"/></g><path d="m56.703.001c-10.13 0-19.158 7.032-21.721 16.073h3.672c2.14-6.733 9.405-12.643 18.048-12.643 10.506 0 19.586 7.998 19.586 20.45 0 2.796-.362 5.316-1.048 7.542h3.563l.035-.122c.583-2.297.88-4.793.88-7.42 0-13.887-10.119-23.88-23.016-23.88z" fill="#0fa0ea"/></svg>