<svg height="32" viewBox="0 0 17 32" width="17" xmlns="http://www.w3.org/2000/svg"><path d="m1.255 9.244c0-.52.421-.941.941-.941h10.667c.52 0 .941.421.941.941s-.421.941-.941.941h-10.667c-.52 0-.941-.421-.941-.941z"/><path d="m9.687 4.186c.368-.368.963-.368 1.331 0l4.392 4.392c.368.368.368.963 0 1.331l-4.392 4.392c-.368.368-.963.368-1.331 0s-.368-.963 0-1.331l3.727-3.727-3.727-3.727c-.368-.368-.368-.963 0-1.331z"/><path d="m15.687 24.303c0-.52-.421-.941-.941-.941h-10.667c-.52 0-.941.421-.941.941s.421.941.941.941h10.667c.52 0 .941-.421.941-.941z"/><path d="m7.254 19.245c-.368-.368-.963-.368-1.331 0l-4.392 4.392c-.368.368-.368.964 0 1.331l4.392 4.392c.368.367.963.367 1.331 0s.368-.964 0-1.331l-3.727-3.727 3.727-3.727c.368-.368.368-.964 0-1.331z"/></svg>