
  <svg
    viewBox="0 0 24 24"
    fill="none"
    xmlns="http://www.w3.org/2000/svg"
  >
    <path
      d="M20 21H4"
      stroke="#121212"
      stroke-width="1.5"
      stroke-linecap="round"
      stroke-linejoin="round"
    />
    <path
      fill-rule="evenodd"
      clip-rule="evenodd"
      d="M14.9055 3.66609V3.66609C18.7865 5.31309 20.8335 9.59309 19.6795 13.6481L19.6045 13.9131C19.2765 15.0681 18.0105 15.6731 16.9055 15.2041L5.21748 10.2421C4.11248 9.77309 3.66848 8.44209 4.27148 7.40309L4.40948 7.16409C6.52548 3.51909 11.0255 2.01809 14.9055 3.66609Z"
      stroke="#121212"
      stroke-width="1.5"
      stroke-linecap="round"
      stroke-linejoin="round"
    />
    <path
      d="M14.9052 3.66602L15.1642 4.71302C15.9332 7.82802 15.2582 11.123 13.3252 13.684V13.684"
      stroke="#121212"
      stroke-width="1.5"
      stroke-linecap="round"
      stroke-linejoin="round"
    />
    <path
      d="M14.9049 3.66602L13.9719 4.20702C11.1969 5.81702 9.2959 8.59302 8.7959 11.762V11.762"
      stroke="#121212"
      stroke-width="1.5"
      stroke-linecap="round"
      stroke-linejoin="round"
    />
    <path
      d="M11.0598 12.7207L7.5498 21.0007"
      stroke="#121212"
      stroke-width="1.5"
      stroke-linecap="round"
      stroke-linejoin="round"
    />
  </svg>

