<svg height="32" viewBox="0 0 47 32" width="47" xmlns="http://www.w3.org/2000/svg"><path d="m46.545 28.578c0 1.607-1.302 2.909-2.909 2.909h-40.727c-1.607 0-2.909-1.302-2.909-2.909v-25.668c0-1.607 1.302-2.909 2.909-2.909h40.727c1.607 0 2.909 1.302 2.909 2.909zm-1.454-18.995h-43.636v18.995c0 .746.562 1.361 1.285 1.445l.17.01h40.727c.746 0 1.361-.561 1.445-1.285l.01-.17v-18.995zm-1.455-8.128h-40.727c-.746 0-1.361.562-1.445 1.285l-.01.17v1.197h43.636v-1.197c0-.746-.562-1.361-1.285-1.445l-.17-.01z" fill="#2a2a2a"/><path d="m5.989 19.166h37.818v5.476h-37.818z" fill="#f2f2f2"/><path d="m34.438 16.428c4.418 0 8 2.452 8 5.476s-3.582 5.476-8 5.476-8-2.452-8-5.476 3.582-5.476 8-5.476zm0 1.454c-3.706 0-6.545 1.943-6.545 4.021s2.839 4.021 6.545 4.021 6.545-1.943 6.545-4.021-2.839-4.021-6.545-4.021z" fill="#ed6370"/></svg>