<svg fill="none" height="24" viewBox="0 0 34 24" width="34" xmlns="http://www.w3.org/2000/svg" xmlns:xlink="http://www.w3.org/1999/xlink"><linearGradient id="a" gradientUnits="userSpaceOnUse" x1="30.3696" x2="10.0465" y1="-2.42075" y2="29.5678"><stop offset="0" stop-color="#11244e"/><stop offset=".509586" stop-color="#408cbf"/><stop offset="1" stop-color="#4b964d"/></linearGradient><path d="m1450.667 0h-1450.667v1024h1450.667z" fill="url(#a)"/><path d="m17.7201 11.464c.0022.023.0042.046.0061.0691v-.0691zm-6.357-5.464c3.7089 0 6.0537 2.18255 6.357 5.464h-6.4262v1.1758h6.4323c-.2766 3.389-2.6282 5.5331-6.3631 5.5331-3.80402 0-6.3631-2.2824-6.3631-6.0864 0-3.66575 2.42075-6.0865 6.3631-6.0865zm17.9827 2.97399c0-.34582-.0692-.69164-.2075-1.03746s-.3458-.62248-.5533-.82997c-.2767-.27666-.5533-.48415-.8991-.55331-.3459-.13833-.7608-.13833-1.3142-.13833h-7.608v2.55907 2.55911h7.5389c.5533 0 1.0374-.0692 1.3141-.1384.3458-.1383.6225-.2766.8991-.5533.2767-.2766.415-.5533.5533-.8299.2075-.34586.2767-.69168.2767-1.03751zm0 6.29391c0-.3458-.0692-.6916-.2075-1.0374s-.3458-.6225-.5533-.83c-.2767-.2767-.5533-.4841-.8991-.5533-.3459-.1383-.7608-.1383-1.3142-.1383h-7.608v2.559 2.5591h7.5389c.5533 0 1.0374-.0691 1.3141-.1383.3458-.1383.6225-.2767.8991-.5533.2767-.2767.415-.5533.5533-.83.2075-.3458.2767-.6916.2767-1.0375z" fill="#fff"/></svg>