<svg width="25" height="24" viewBox="0 0 25 24" fill="none" xmlns="http://www.w3.org/2000/svg">
<g id="Group">
<path id="Path" fill-rule="evenodd" clip-rule="evenodd" d="M4.49666 10.4995H16.5017C17.0542 10.4995 17.5021 10.9474 17.5021 11.4999V14.5012C17.5021 17.8163 14.8147 20.5037 11.4996 20.5037H9.49875C6.18366 20.5037 3.49625 17.8163 3.49625 14.5012V11.4999C3.49625 10.9474 3.94415 10.4995 4.49666 10.4995Z" stroke="#2A2A2A" stroke-width="1.5" stroke-linecap="round" stroke-linejoin="round"/>
<path id="Path_2" d="M14.0006 7.49818C13.3337 6.79788 13.3337 5.69743 14.0006 4.99714C14.6676 4.29685 14.6676 3.19638 14.0006 2.49609" stroke="#2A2A2A" stroke-width="1.5" stroke-linecap="round" stroke-linejoin="round"/>
<path id="Path_3" d="M10.4992 7.49818C9.83223 6.79788 9.83223 5.69743 10.4992 4.99714C11.1661 4.29684 11.1661 3.19639 10.4992 2.49609" stroke="#2A2A2A" stroke-width="1.5" stroke-linecap="round" stroke-linejoin="round"/>
<path id="Path_4" d="M6.99771 7.49818C6.33076 6.79789 6.33076 5.69743 6.99771 4.99714C7.66465 4.29684 7.66465 3.19639 6.99771 2.49609" stroke="#2A2A2A" stroke-width="1.5" stroke-linecap="round" stroke-linejoin="round"/>
<path id="Path_5" d="M16.6295 17.6174L18.4761 17.1949C20.2476 16.7895 21.5038 15.2134 21.5038 13.3961V13.3961C21.5038 12.6279 21.1986 11.8911 20.6554 11.3479C20.1122 10.8047 19.3754 10.4995 18.6072 10.4995H16.0015" stroke="#2A2A2A" stroke-width="1.5" stroke-linecap="round" stroke-linejoin="round"/>
</g>
</svg>
