 <svg
    width="18"
    height="19"
    viewBox="0 0 18 19"
    fill="none"
    xmlns="http://www.w3.org/2000/svg"
  >
    <g clipPath="url(#clip0_854_9244)">
      <path
        d="M6 13.1914L9 16.1914L12 13.1914"
        stroke="#121212"
        strokeWidth="1.5"
        strokeLinecap="round"
        strokeLinejoin="round"
      />
      <path
        d="M9 9.44141V16.1914"
        stroke="#121212"
        strokeWidth="1.5"
        strokeLinecap="round"
        strokeLinejoin="round"
      />
      <path
        d="M15.66 14.0089C16.3121 13.5503 16.801 12.896 17.056 12.1407C17.3109 11.3855 17.3186 10.5686 17.0778 9.80872C16.8371 9.04883 16.3604 8.38542 15.7171 7.91478C15.0737 7.44413 14.2971 7.19073 13.5 7.19136H12.555C12.3294 6.31226 11.9074 5.49579 11.3206 4.80342C10.7338 4.11104 9.99762 3.5608 9.16742 3.19412C8.33721 2.82744 7.43464 2.65388 6.52766 2.68649C5.62067 2.71911 4.7329 2.95706 3.93118 3.38243C3.12946 3.80779 2.43468 4.40949 1.89915 5.14223C1.36362 5.87496 1.0013 6.71964 0.839456 7.61267C0.677613 8.5057 0.720468 9.4238 0.964796 10.2979C1.20912 11.1719 1.64856 11.9792 2.25001 12.6589"
        stroke="#121212"
        strokeWidth="1.5"
        strokeLinecap="round"
        strokeLinejoin="round"
      />
    </g>
    <defs>
      <clipPath id="clip0_854_9244">
        <rect
          width="18"
          height="18"
          fill="white"
          transform="translate(0 0.441406)"
        />
      </clipPath>
    </defs>
  </svg>