
  <svg
    viewBox="0 0 24 24"
    fill="none"
    xmlns="http://www.w3.org/2000/svg"
  >
    <path
      d="M10.8895 5.45728C11.7684 4.00709 13.3079 3.08566 15.0013 2.99625C18.3126 2.99625 21.0037 7.02793 21.0037 12C21.0037 15.8716 18.3126 19.0029 15.0013 19.0029C14.4581 19.0012 13.9184 18.9169 13.4006 18.7528"
      stroke="#323232"
      stroke-width="1.5"
      stroke-linecap="round"
      stroke-linejoin="round"
    />
    <path
      fill-rule="evenodd"
      clip-rule="evenodd"
      d="M2.99625 14.0008C2.99625 17.8684 5.68366 21.0037 8.99875 21.0037C12.3138 21.0037 15.0013 17.8684 15.0013 14.0008C15.0013 9.0282 12.3138 4.99708 8.99875 4.99708C5.68366 4.99708 2.99625 9.0282 2.99625 14.0008Z"
      stroke="#323232"
      stroke-width="1.5"
      stroke-linecap="round"
      stroke-linejoin="round"
    />
    <path
      d="M3 15.5L5 13.5L7 15.5L9 13.5L11 15.5L13 13.5L15 15.5"
      stroke="#323232"
      stroke-width="1.5"
      stroke-linejoin="round"
    />
    <path
      d="M14 10L16 8L18 10L20 8"
      stroke="#323232"
      stroke-width="1.5"
      stroke-linejoin="round"
    />
    <path
      d="M15 13L16 12L18 14L21 11"
      stroke="#323232"
      stroke-width="1.5"
      stroke-linejoin="round"
    />
    <circle cx="6.75" cy="10.75" r="0.75" fill="#323232" />
    <circle cx="10.75" cy="10.75" r="0.75" fill="#323232" />
    <circle cx="8.75" cy="17.75" r="0.75" fill="#323232" />
    <circle cx="4.75" cy="17.75" r="0.75" fill="#323232" />
    <circle cx="12.75" cy="17.75" r="0.75" fill="#323232" />
  </svg>

