
  <svg
    viewBox="0 0 48 32"
    xmlns="http://www.w3.org/2000/svg"
  >
    <path d="m44.898 1.143c1.42 0 2.571 1.151 2.571 2.571v25.714c0 1.42-1.151 2.571-2.571 2.571h-41.143c-1.42 0-2.571-1.151-2.571-2.571v-25.714c0-1.42 1.151-2.571 2.571-2.571h41.143zm-26.318 14.66-14.482 14.482h40.437l-14.475-14.475-5.21 4.011c-.15.116-.334.179-.523.178s-.373-.062-.523-.178l-5.223-4.018zm27.173-12.059-14.322 11.015 14.322 14.322zm-42.855 0v25.317l14.311-14.311zm41.195-.887h-39.536l19.769 15.204z" />
  </svg>

