
  <svg
    viewBox="0 0 24 24"
    fill="none"
    xmlns="http://www.w3.org/2000/svg"
  >
    <path
      d="M18.5033 6.95147L16.1375 3.79705C15.5003 2.94753 14.3105 2.74372 13.4269 3.33276L7.92871 6.99825"
      stroke="currentColor"
      stroke-width="1.5"
      stroke-linecap="round"
      stroke-linejoin="round"
    />
    <path
      fill-rule="evenodd"
      clip-rule="evenodd"
      d="M18.503 11.5H21.004C21.5566 11.5 22.0045 11.9479 22.0045 12.5004V15.5017C22.0045 16.0542 21.5566 16.5021 21.004 16.5021H18.503C17.1217 16.5021 16.002 15.3823 16.002 14.001V14.001C16.002 12.6198 17.1217 11.5 18.503 11.5V11.5Z"
      stroke="currentColor"
      stroke-width="1.5"
      stroke-linecap="round"
      stroke-linejoin="round"
    />
    <path
      d="M21.0036 11.4999V9.49909C21.0036 8.1178 19.8838 6.99805 18.5026 6.99805H5.49714C4.11585 6.99805 2.99609 8.1178 2.99609 9.49909V18.5028C2.99609 19.8841 4.11585 21.0039 5.49714 21.0039H18.5026C19.8838 21.0039 21.0036 19.8841 21.0036 18.5028V16.502"
      stroke="currentColor"
      stroke-width="1.5"
      stroke-linecap="round"
      stroke-linejoin="round"
    />
  </svg>

