  <svg
    version="1.1"
    xmlns="http://www.w3.org/2000/svg"
    viewBox="0 0 32 32"
  >
    <title>flag-mx</title>
    <path fill="#fff" d="M9.143 4.571h13.714v22.857h-13.714v-22.857z"></path>
    <path
      fill="#e3283e"
      d="M21.333 4.571v22.857h6.095c2.509 0 4.547-2.022 4.571-4.526v-13.806c-0.024-2.504-2.062-4.526-4.571-4.526h-6.095z"
    ></path>
    <path
      fill="#128a60"
      d="M10.667 27.429v-22.857h-6.095c-2.525 0-4.571 2.047-4.571 4.571v13.714c0 2.525 2.047 4.571 4.571 4.571h6.095z"
    ></path>
    <path
      fill="#8c9157"
      d="M12.15 14.857c0.399 0 0.722 0.309 0.722 0.691 0 1.106 0.626 2.073 1.561 2.592 0.345 0.192 0.462 0.614 0.262 0.944s-0.642 0.442-0.987 0.251c-1.362-0.756-2.28-2.169-2.28-3.787 0-0.382 0.323-0.691 0.722-0.691z"
    ></path>
    <path
      fill="#8c9157"
      d="M19.849 14.857c0.399 0 0.722 0.309 0.722 0.691 0 1.551-0.843 2.912-2.111 3.689-0.336 0.206-0.782 0.112-0.997-0.21s-0.117-0.749 0.219-0.954c0.871-0.533 1.445-1.465 1.445-2.524 0-0.382 0.323-0.691 0.722-0.691z"
    ></path>
    <path
      fill="#c59262"
      d="M16 18.286c1.262 0 2.286-1.535 2.286-3.429s-1.023-3.429-2.286-3.429-2.286 1.535-2.286 3.429c0 1.894 1.023 3.429 2.286 3.429z"
    ></path>
  </svg>
