
  <svg
    version="1.1"
    xmlns="http://www.w3.org/2000/svg"
    viewBox="0 0 32 32"
  >
    <title>flag-uk</title>
    <path
      fill="#fff"
      d="M27.429 4.571h-22.857c-2.525 0-4.571 2.047-4.571 4.571v13.714c0 2.525 2.047 4.571 4.571 4.571h22.857c2.525 0 4.571-2.047 4.571-4.571v-13.714c0-2.525-2.047-4.571-4.571-4.571z"
    ></path>
    <path
      fill="#0a17a7"
      d="M0 9.143c0-2.525 2.047-4.571 4.571-4.571h22.857c2.525 0 4.571 2.047 4.571 4.571v13.714c0 2.525-2.047 4.571-4.571 4.571h-22.857c-2.525 0-4.571-2.047-4.571-4.571v-13.714z"
    ></path>
    <path
      fill="#fff"
      d="M0.384 24.695l7.243-4.885h-7.627v-7.619h7.627l-7.243-4.885c0.427-0.971 1.182-1.766 2.125-2.243l9.682 6.53v-7.021h7.619v7.021l9.681-6.53c0.943 0.477 1.698 1.272 2.125 2.243l-7.243 4.885h7.627v7.619h-7.627l7.243 4.885c-0.427 0.971-1.182 1.766-2.125 2.243l-9.681-6.53v7.021h-7.619v-7.021l-9.682 6.53c-0.943-0.477-1.698-1.272-2.125-2.243z"
    ></path>
    <path
      fill="#f00"
      d="M30.917 6.188c-0.255-0.301-0.548-0.568-0.872-0.794l-9.024 5.937c-0.264 0.173-0.337 0.528-0.163 0.791s0.528 0.337 0.791 0.163l9.268-6.097z"
    ></path>
    <path
      fill="#f00"
      d="M1.914 26.577c-0.32-0.229-0.609-0.498-0.861-0.801l9.248-6.133c0.263-0.174 0.618-0.103 0.792 0.16s0.103 0.618-0.16 0.792l-9.019 5.981z"
    ></path>
    <path
      fill="#f00"
      d="M31.331 25.239c-0.201 0.328-0.442 0.629-0.716 0.896l-8.063-5.435c-0.262-0.176-0.331-0.532-0.154-0.793s0.532-0.331 0.793-0.154l8.14 5.487z"
    ></path>
    <path
      fill="#f00"
      d="M0.671 6.758c0.201-0.328 0.442-0.629 0.717-0.895l8.082 5.447c0.262 0.176 0.331 0.532 0.155 0.793s-0.531 0.331-0.793 0.155l-8.16-5.499z"
    ></path>
    <path
      fill="#e6273e"
      d="M0 18.286h13.714v9.143h4.571v-9.143h13.714v-4.571h-13.714v-9.143h-4.571v9.143h-13.714v4.571z"
    ></path>
  </svg>

