
  <svg
    version="1.1"
    xmlns="http://www.w3.org/2000/svg"
    viewBox="0 0 32 32"
  >
    <title>flag-es</title>
    <path fill="#ffd133" d="M0 9.143h32v13.714h-32v-13.714z"></path>
    <path
      fill="#dd172c"
      d="M0 9.143c0-2.525 2.047-4.571 4.571-4.571h22.857c2.525 0 4.571 2.047 4.571 4.571v1.524h-32v-1.524z"
    ></path>
    <path
      fill="#dd172c"
      d="M32 21.333h-32v1.524c0 2.523 2.043 4.568 4.565 4.571h22.87c2.522-0.003 4.565-2.049 4.565-4.571v-1.524z"
    ></path>
    <path fill="#ffd133" d="M0 21.333h32v-10.667h-32v10.667z"></path>
    <path
      fill="#a41517"
      d="M8.132 14.476c-0.892 0-1.593 0.762-1.519 1.65l0.117 1.402c0.072 0.858 0.789 1.519 1.65 1.519s1.579-0.66 1.65-1.519l0.117-1.402c0.074-0.888-0.627-1.65-1.519-1.65h-0.497z"
    ></path>
    <path
      fill="#a41517"
      d="M5.333 13.714c-0.421 0-0.762 0.341-0.762 0.762v3.81c0 0.421 0.341 0.762 0.762 0.762s0.762-0.341 0.762-0.762v-3.81c0-0.421-0.341-0.762-0.762-0.762z"
    ></path>
    <path
      fill="#a41517"
      d="M11.429 13.714c-0.421 0-0.762 0.341-0.762 0.762v3.81c0 0.421 0.341 0.762 0.762 0.762s0.762-0.341 0.762-0.762v-3.81c0-0.421-0.341-0.762-0.762-0.762z"
    ></path>
    <path
      fill="#a41517"
      d="M6.857 13.41c0-0.673 0.546-1.219 1.219-1.219h0.61c0.673 0 1.219 0.546 1.219 1.219 0 0.168-0.136 0.305-0.305 0.305h-2.438c-0.168 0-0.305-0.136-0.305-0.305z"
    ></path>
  </svg>

