<svg height="32" viewBox="0 0 69 32" width="69" xmlns="http://www.w3.org/2000/svg"><path d="m1.333 6.81c0-2.841 2.315-5.144 5.169-5.144h56.33c2.855 0 5.169 2.303 5.169 5.144v18.382c0 2.839-2.314 5.143-5.169 5.143h-56.33c-2.854 0-5.169-2.304-5.169-5.143v-18.382z" fill="#000268"/><path d="m3.455 6.986v18.032c0 1.775 1.447 3.214 3.232 3.214h29.512v-24.46h-29.512c-1.785 0-3.232 1.439-3.232 3.214zm40.368 8.926c0 1.148-.568 1.937-1.508 1.937-.831 0-1.523-.789-1.523-1.84 0-1.079.609-1.881 1.523-1.881.969 0 1.508.83 1.508 1.785zm-5.519 6.584h2.489v-3.915h.028c.471.858 1.413 1.176 2.284 1.176 2.144 0 3.292-1.77 3.292-3.901 0-1.742-1.092-3.639-3.085-3.639-1.133 0-2.185.457-2.684 1.467h-.028v-1.3h-2.296zm11.492-5.188c0-.691.663-.953 1.508-.953.373 0 .733.026 1.051.041 0 .843-.595 1.701-1.536 1.701-.581 0-1.024-.29-1.024-.789zm5.021 2.283c-.11-.567-.138-1.135-.138-1.701v-2.684c0-2.199-1.59-2.989-3.43-2.989-1.065 0-1.991.152-2.877.513l.042 1.688c.689-.388 1.493-.54 2.296-.54.898 0 1.631.264 1.646 1.246-.318-.056-.762-.098-1.163-.098-1.327 0-3.721.264-3.721 2.463 0 1.564 1.272 2.268 2.697 2.268 1.024 0 1.716-.4 2.283-1.3h.028c0 .375.041.747.056 1.135h2.281zm1.12 2.905c.512.111 1.024.167 1.549.167 2.283 0 2.822-1.757 3.527-3.57l2.643-6.709h-2.491l-1.48 4.703h-.028l-1.549-4.703h-2.682l2.918 7.372c-.18.637-.65.997-1.259.997-.347 0-.65-.042-.982-.152l-.165 1.895z" fill="#fff"/><path d="m9.536 15.926c0-.982.485-1.799 1.412-1.799 1.12 0 1.59.899 1.59 1.701 0 1.107-.706 1.854-1.59 1.854-.747 0-1.412-.635-1.412-1.756zm5.409-3.541h-2.255v1.3h-.026c-.527-.886-1.385-1.467-2.45-1.467-2.24 0-3.251 1.606-3.251 3.75 0 2.13 1.231 3.624 3.208 3.624.997 0 1.828-.388 2.422-1.231h.028v.388c0 1.41-.774 2.088-2.212 2.088-1.038 0-1.675-.221-2.435-.594l-.125 1.965c.58.208 1.562.457 2.753.457 2.905 0 4.343-.955 4.343-3.916v-6.363zm4.208-3.002h-2.49v1.826h2.49zm-2.489 10.208h2.489v-7.207h-2.489zm9.422-7.29c-.249-.041-.554-.083-.843-.083-1.079 0-1.701.582-2.13 1.495h-.028v-1.328h-2.268v7.207h2.489v-3.042c0-1.412.651-2.255 1.813-2.255.291 0 .567 0 .843.082l.125-2.075zm4.287 5.713c-1.148 0-1.618-.955-1.618-2.019 0-1.079.47-2.034 1.618-2.034 1.149 0 1.62.955 1.62 2.034 0 1.065-.47 2.019-1.62 2.019zm0 1.743c2.38 0 4.192-1.382 4.192-3.762 0-2.394-1.813-3.778-4.192-3.778s-4.19 1.384-4.19 3.778c0 2.38 1.811 3.762 4.19 3.762z" fill="#ff0007"/></svg>