<svg width="18" height="18" viewBox="0 0 18 18" fill="none" xmlns="http://www.w3.org/2000/svg">
<path fill-rule="evenodd" clip-rule="evenodd" d="M8.25 5.25H14.25C14.6642 5.25 15 5.58579 15 6V15.75H7.5V6C7.5 5.58579 7.83579 5.25 8.25 5.25Z" stroke="white" stroke-linecap="round" stroke-linejoin="round"/>
<rect x="10.125" y="12.75" width="2.25" height="3" stroke="white" stroke-linecap="round" stroke-linejoin="round"/>
<path d="M10.125 7.875V10.125" stroke="white" stroke-linecap="round" stroke-linejoin="round"/>
<path d="M12.375 7.875V10.125" stroke="white" stroke-linecap="round" stroke-linejoin="round"/>
<path d="M10.125 9H12.375" stroke="white" stroke-linecap="round" stroke-linejoin="round"/>
<path d="M10.5 5.25V3C10.5 2.58579 10.1642 2.25 9.75 2.25H3.75C3.33579 2.25 3 2.58579 3 3V15.75H10.5" stroke="white" stroke-linecap="round" stroke-linejoin="round"/>
<path d="M16.5 15.75H1.5" stroke="white" stroke-linecap="round" stroke-linejoin="round"/>
<path d="M3 6.75H4.5" stroke="white" stroke-linecap="round" stroke-linejoin="round"/>
<path d="M3 9H4.5" stroke="white" stroke-linecap="round" stroke-linejoin="round"/>
<path d="M3 11.25H4.5" stroke="white" stroke-linecap="round" stroke-linejoin="round"/>
</svg>
