<svg width="41" height="40" viewBox="0 0 41 40" fill="none" xmlns="http://www.w3.org/2000/svg">
<path d="M9.25 20H14.465C16.4167 20 18 18.4167 18 16.465V16.465C18 15.5267 17.6283 14.6283 16.965 13.965L13.8967 10.8967" stroke="#323232" strokeWidth="2" strokeLinecap="round" strokeLinejoin="round"/>
<path d="M28.365 28.0467L26.1433 24.715C25.7416 24.1117 25.065 23.75 24.34 23.75V23.75C23.5183 23.75 22.7683 23.2867 22.4016 22.5517L22.235 22.22C21.93 21.61 21.93 20.8917 22.235 20.2817L23.6516 17.45C24.0183 16.715 24.77 16.2517 25.59 16.2517H31.1" stroke="#323232" strokeWidth="2" strokeLinecap="round" strokeLinejoin="round"/>
<path d="M20.5 8.75C26.7283 8.75 31.75 13.7717 31.75 20C31.75 26.2283 26.7283 31.25 20.5 31.25" stroke="#323232" strokeWidth="2" strokeLinecap="round" strokeLinejoin="round"/>
<path d="M20.5 31.25C14.2717 31.25 9.25 26.2283 9.25 20C9.25 13.7717 14.2717 8.75 20.5 8.75" stroke="#323232" strokeWidth="2" strokeLinecap="round" strokeLinejoin="round"/>
<path d="M8.14996 9.455C8.9833 8.48 9.93163 7.61167 10.97 6.85834" stroke="#323232" strokeWidth="2" strokeLinecap="round" strokeLinejoin="round"/>
<path d="M29.5283 33.51C26.945 35.2383 23.8416 36.25 20.5 36.25C18.8533 36.25 17.2666 36 15.7683 35.545" stroke="#323232" strokeWidth="2" strokeLinecap="round" strokeLinejoin="round"/>
<path d="M10.2967 32.6383C7.98334 30.7683 6.20667 28.275 5.19501 25.4167" stroke="#323232" strokeWidth="2" strokeLinecap="round" strokeLinejoin="round"/>
<path d="M5.19499 14.5833C4.59333 16.28 4.24999 18.0983 4.24999 20" stroke="#323232" strokeWidth="2" strokeLinecap="round" strokeLinejoin="round"/>
<path d="M33.975 29.0283C35.715 26.445 36.75 23.35 36.75 20C36.75 11.025 29.475 3.75 20.5 3.75" stroke="#323232" strokeWidth="2" strokeLinecap="round" strokeLinejoin="round"/>
</svg>
