  <svg
    viewBox="0 0 24 24"
    fill="none"
    xmlns="http://www.w3.org/2000/svg"
  >
    <rect
      x="4"
      y="3"
      width="16"
      height="18"
      rx="2"
      stroke="#121212"
      stroke-width="1.5"
      stroke-linecap="round"
      stroke-linejoin="round"
    />
    <path
      d="M8 17H16"
      stroke="#121212"
      stroke-width="1.5"
      stroke-linecap="round"
      stroke-linejoin="round"
    />
    <path
      fill-rule="evenodd"
      clip-rule="evenodd"
      d="M11.2152 6.98783C11.3626 6.68912 11.6668 6.5 11.9999 6.5C12.333 6.5 12.6372 6.68912 12.7845 6.98783L13.2297 7.89031C13.3572 8.14861 13.6035 8.32766 13.8886 8.36909L14.8844 8.51384C15.2139 8.56176 15.4877 8.79256 15.5906 9.10922C15.6936 9.42588 15.6079 9.77353 15.3695 10.006L14.6486 10.7092C14.4425 10.9102 14.3485 11.1998 14.3972 11.4835L14.5673 12.4751C14.6235 12.8033 14.4886 13.1351 14.2192 13.3308C13.9498 13.5266 13.5927 13.5524 13.2979 13.3975L12.4069 12.9293C12.1521 12.7954 11.8477 12.7954 11.5928 12.9293L10.7019 13.3975C10.4071 13.5524 10.0499 13.5266 9.78051 13.3308C9.51111 13.1351 9.37619 12.8033 9.43246 12.4751L9.60257 11.4835C9.65123 11.1998 9.55721 10.9102 9.35113 10.7092L8.63022 10.006C8.39187 9.77353 8.30616 9.42588 8.4091 9.10922C8.51204 8.79256 8.78579 8.56176 9.1153 8.51384L10.1112 8.36909C10.3962 8.32766 10.6426 8.14861 10.77 7.89031L11.2152 6.98783Z"
      stroke="#121212"
      stroke-width="1.5"
      stroke-linecap="round"
      stroke-linejoin="round"
    />
  </svg>

