  <svg
    viewBox="0 0 17 17"
    fill="none"
    xmlns="http://www.w3.org/2000/svg"
  >
    <g clipPath="url(#clip0_338_17328)">
      <path
        d="M14.9629 7.16675C14.9629 11.8334 8.96289 15.8334 8.96289 15.8334C8.96289 15.8334 2.96289 11.8334 2.96289 7.16675C2.96289 5.57545 3.59503 4.04933 4.72025 2.92411C5.84547 1.79889 7.37159 1.16675 8.96289 1.16675C10.5542 1.16675 12.0803 1.79889 13.2055 2.92411C14.3307 4.04933 14.9629 5.57545 14.9629 7.16675Z"
        stroke="currentColor"
        stroke-width="1.5"
        stroke-linecap="round"
        stroke-linejoin="round"
      />
      <path
        d="M8.96289 9.16675C10.0675 9.16675 10.9629 8.27132 10.9629 7.16675C10.9629 6.06218 10.0675 5.16675 8.96289 5.16675C7.85832 5.16675 6.96289 6.06218 6.96289 7.16675C6.96289 8.27132 7.85832 9.16675 8.96289 9.16675Z"
        stroke="currentColor"
        stroke-width="1.5"
        stroke-linecap="round"
        stroke-linejoin="round"
      />
    </g>
    <defs>
      <clipPath id="clip0_338_17328">
        <rect
          width="16"
          height="16"
          fill="white"
          transform="translate(0.962891 0.5)"
        />
      </clipPath>
    </defs>
  </svg>

