<svg fill="none" height="24" viewBox="0 0 24 24" width="24" xmlns="http://www.w3.org/2000/svg"><g stroke="currentColor" stroke-linecap="round" stroke-linejoin="round" stroke-width="1.5"><path d="m7 10c.395-.485.935-.76 1.5-.76s1.09.275 1.5.76"/><path d="m14 10c.395-.485.935-.76 1.5-.76s1.09.275 1.5.76"/><path d="m18.364 5.63604c3.5147 3.51472 3.5147 9.21316 0 12.72786-3.5147 3.5148-9.2132 3.5148-12.7279 0-3.51472-3.5147-3.51472-9.21316 0-12.72786 3.51472-3.51472 9.2132-3.51472 12.7279 0"/><path d="m15.5 14.688s-1.313 1.312-3.5 1.312c-2.188 0-3.5-1.312-3.5-1.312"/></g></svg>