<svg width="40" height="40" viewBox="0 0 40 40" fill="none" xmlns="http://www.w3.org/2000/svg">
<path fillRule="evenodd" clipRule="evenodd" d="M6.66665 13.3333H33.3333C35.175 13.3333 36.6666 14.825 36.6666 16.6667V33.3333C36.6666 35.175 35.175 36.6667 33.3333 36.6667H6.66665C4.82498 36.6667 3.33331 35.175 3.33331 33.3333V16.6667C3.33331 14.825 4.82498 13.3333 6.66665 13.3333Z" stroke="#323232" strokeWidth="2" strokeLinecap="round" strokeLinejoin="round"/>
<path d="M22.9463 22.0537C24.5735 23.6808 24.5735 26.319 22.9463 27.9462C21.3191 29.5734 18.6809 29.5734 17.0538 27.9462C15.4266 26.319 15.4266 23.6808 17.0538 22.0537C18.6809 20.4265 21.3191 20.4265 22.9463 22.0537" stroke="#323232" strokeWidth="2" strokeLinecap="round" strokeLinejoin="round"/>
<path d="M30 29.1667V20.8333" stroke="#323232" strokeWidth="2" strokeLinecap="round" strokeLinejoin="round"/>
<path d="M10 29.1667V20.8333" stroke="#323232" strokeWidth="2" strokeLinecap="round" strokeLinejoin="round"/>
<path d="M33.3334 8.33333H6.66669" stroke="#323232" strokeWidth="2" strokeLinecap="round" strokeLinejoin="round"/>
<path d="M31.6666 3.33333H8.33331" stroke="#323232" strokeWidth="2" strokeLinecap="round" strokeLinejoin="round"/>
</svg>
