  <svg
    viewBox="0 0 20 21"
    fill="none"
    xmlns="http://www.w3.org/2000/svg"
  >
    <path
      d="M17.5 11.1583C17.3689 12.5768 16.8365 13.9287 15.9652 15.0557C15.0938 16.1826 13.9196 17.0382 12.5797 17.5221C11.2399 18.0061 9.78997 18.0984 8.39956 17.7884C7.00916 17.4784 5.73581 16.7788 4.7285 15.7715C3.72119 14.7642 3.0216 13.4908 2.71157 12.1004C2.40154 10.71 2.49391 9.26007 2.97786 7.92025C3.46182 6.58042 4.31734 5.40614 5.44432 4.53479C6.57131 3.66345 7.92314 3.13109 9.34165 3C8.51116 4.12356 8.11152 5.50787 8.21542 6.90118C8.31932 8.29448 8.91986 9.60422 9.90781 10.5922C10.8958 11.5801 12.2055 12.1807 13.5988 12.2846C14.9921 12.3885 16.3764 11.9888 17.5 11.1583V11.1583Z"
      stroke="currentColor"
      stroke-width="1.5"
      stroke-linecap="round"
      stroke-linejoin="round"
    />
  </svg>

