<svg width="18" height="18" viewBox="0 0 18 18" fill="none" xmlns="http://www.w3.org/2000/svg">
<path d="M15.5944 7.14264C16.1869 7.73517 16.1869 8.69583 15.5944 9.28836C15.0019 9.88088 14.0412 9.88088 13.4487 9.28836C12.8561 8.69583 12.8561 7.73516 13.4487 7.14264C14.0412 6.55012 15.0019 6.55012 15.5944 7.14264" stroke="white" stroke-linecap="round" stroke-linejoin="round"/>
<path d="M10.6519 4.43427C11.5643 5.34663 11.5643 6.82586 10.6519 7.73823C9.73957 8.65059 8.26033 8.65059 7.34797 7.73823C6.43561 6.82587 6.43561 5.34664 7.34797 4.43427C8.26033 3.52191 9.73956 3.52191 10.6519 4.43427" stroke="white" stroke-linecap="round" stroke-linejoin="round"/>
<path d="M4.55141 7.14264C5.14393 7.73517 5.14393 8.69583 4.55141 9.28836C3.95889 9.88088 2.99822 9.88088 2.4057 9.28836C1.81317 8.69583 1.81317 7.73516 2.4057 7.14264C2.99822 6.55012 3.95889 6.55012 4.55141 7.14264" stroke="white" stroke-linecap="round" stroke-linejoin="round"/>
<path d="M17.25 14.25V13.428C17.25 12.3923 16.4108 11.553 15.375 11.553H14.7743" stroke="white" stroke-linecap="round" stroke-linejoin="round"/>
<path d="M0.75 14.25V13.428C0.75 12.3923 1.58925 11.553 2.625 11.553H3.22575" stroke="white" stroke-linecap="round" stroke-linejoin="round"/>
<path d="M13.0042 14.25V13.0492C13.0042 11.5995 11.829 10.4242 10.3792 10.4242H7.62C6.17025 10.4242 4.995 11.5995 4.995 13.0492V14.25" stroke="white" stroke-linecap="round" stroke-linejoin="round"/>
</svg>
