<svg height="32" viewBox="0 0 120 32" width="120" xmlns="http://www.w3.org/2000/svg"><path d="m44.811 6.545h-6.632s0 0-.001 0c-.458 0-.838.334-.909.772l-.001.005-2.682 17.006c-.004.026-.007.055-.007.085 0 .305.247.553.553.553h.001 3.166c.458 0 .839-.335.909-.773l.001-.005.723-4.587c.071-.444.451-.778.91-.779h2.099c4.368 0 6.89-2.114 7.548-6.303.297-1.833.013-3.273-.846-4.281-.943-1.107-2.614-1.693-4.834-1.693zm.765 6.21c-.363 2.38-2.181 2.38-3.939 2.38h-1.001l.702-4.444c.043-.266.271-.466.546-.466h.459c1.198 0 2.327 0 2.911.683.348.407.455 1.012.322 1.848zm19.058-.076h-3.176c-.275 0-.503.201-.545.463v.003l-.141.888-.222-.322c-.688-.998-2.221-1.331-3.751-1.331-3.509 0-6.507 2.658-7.09 6.386-.303 1.86.128 3.638 1.183 4.879.968 1.14 2.352 1.616 4 1.616 2.828 0 4.396-1.818 4.396-1.818l-.142.882c-.004.026-.007.056-.007.087 0 .305.247.552.552.553h2.861c.458 0 .839-.335.909-.773l.001-.005 1.716-10.869c.004-.026.007-.056.007-.087 0-.304-.247-.551-.551-.551zm-4.426 6.181c-.306 1.814-1.746 3.032-3.583 3.032-.922 0-1.659-.296-2.132-.856-.469-.557-.648-1.349-.498-2.231.286-1.799 1.75-3.056 3.559-3.056.902 0 1.635.3 2.118.865.484.571.676 1.368.537 2.247zm21.34-6.181h-3.191c-.316.001-.595.159-.761.401l-.002.003-4.401 6.483-1.866-6.23c-.118-.383-.469-.657-.884-.657h-3.136-.001c-.305 0-.553.247-.553.553 0 .064.011.125.031.182l-.001-.004 3.515 10.316-3.305 4.665c-.064.089-.102.2-.102.32 0 .305.247.553.553.553h3.187.001c.312 0 .588-.155.754-.393l.002-.003 10.614-15.321c.062-.088.099-.197.099-.315 0-.305-.247-.553-.552-.553z" fill="#253b80"/><path d="m92.113 6.545h-6.633c-.458 0-.838.335-.909.772l-.001.005-2.682 17.006c-.004.026-.007.056-.007.086 0 .305.247.552.552.552h3.404c.32 0 .586-.235.636-.541l.001-.004.761-4.82c.071-.444.451-.778.91-.779h2.098c4.369 0 6.89-2.114 7.549-6.303.298-1.833.012-3.273-.847-4.281-.942-1.107-2.612-1.693-4.832-1.693zm.766 6.21c-.362 2.38-2.18 2.38-3.939 2.38h-1l.703-4.444c.042-.266.27-.466.544-.466h.001.459c1.197 0 2.327 0 2.911.683.348.407.454 1.012.321 1.848zm19.057-.076h-3.174-.001c-.274 0-.502.201-.543.463v.003l-.141.888-.223-.322c-.688-.998-2.22-1.331-3.75-1.331-3.509 0-6.506 2.658-7.089 6.386-.303 1.86.127 3.638 1.182 4.879.97 1.14 2.353 1.616 4 1.616 2.828 0 4.396-1.818 4.396-1.818l-.142.882c-.004.026-.007.056-.007.087 0 .305.247.553.553.553h.001 2.86c.458 0 .838-.335.909-.773l.001-.005 1.717-10.869c.004-.025.006-.055.006-.084 0-.306-.248-.554-.554-.554 0 0 0 0-.001 0zm-4.427 6.181c-.305 1.814-1.746 3.032-3.583 3.032-.92 0-1.659-.296-2.132-.856-.469-.557-.646-1.349-.498-2.231.288-1.799 1.75-3.056 3.559-3.056.902 0 1.635.3 2.118.865.486.571.678 1.368.537 2.247zm8.171-11.849-2.722 17.317c-.004.026-.007.056-.007.086 0 .305.247.552.552.552h2.737c.455 0 .841-.33.911-.779l2.684-17.005c.004-.026.007-.056.007-.086 0-.305-.247-.552-.552-.553h-3.064c-.275.001-.502.202-.545.464v.003z" fill="#179bd7"/><path d="m7.046 28.271.507-3.221-1.13-.026h-5.394l3.749-23.77c.023-.148.15-.26.303-.26h.002 9.096c3.02 0 5.104.628 6.191 1.869.51.582.835 1.19.992 1.859.165.702.168 1.541.007 2.564l-.012.075v.655l.51.289c.402.206.744.47 1.03.784l.003.003c.436.497.719 1.13.838 1.879.123.771.082 1.688-.119 2.727-.233 1.195-.609 2.235-1.117 3.087-.46.774-1.052 1.42-1.751 1.927l-.018.013c-.675.479-1.477.843-2.384 1.075-.879.229-1.88.344-2.979.344h-.708c-.506 0-.998.182-1.384.509-.375.323-.636.769-.72 1.275l-.002.012-.053.29-.896 5.678-.041.209c-.011.066-.029.099-.056.121-.025.021-.058.033-.093.034h-4.371z" fill="#253b80"/><path d="m22.35 7.435c-.027.174-.058.351-.093.533-1.2 6.159-5.303 8.286-10.544 8.286h-2.669c-.641 0-1.181.465-1.281 1.098l-1.366 8.665-.387 2.456c-.005.032-.008.069-.008.107 0 .377.305.682.682.683h4.733c.56 0 1.037-.407 1.125-.96l.047-.241.891-5.655.057-.31c.087-.555.564-.962 1.125-.962h.708c4.586 0 8.175-1.862 9.225-7.249.438-2.251.211-4.13-.948-5.452-.363-.402-.791-.736-1.271-.987l-.025-.012z" fill="#179bd7"/><path d="m21.095 6.934c-.317-.097-.71-.187-1.112-.252l-.054-.007c-.677-.109-1.457-.172-2.251-.172-.036 0-.071 0-.107 0h.005-7.129-.001c-.566 0-1.035.414-1.122.955l-.001.006-1.517 9.606-.044.28c.099-.625.635-1.098 1.28-1.098h.001 2.669c5.241 0 9.345-2.128 10.544-8.286.036-.182.066-.36.093-.533-.276-.149-.602-.29-.941-.403l-.045-.013c-.027-.012-.116-.041-.206-.068l-.062-.016z" fill="#222d65"/><path d="m9.323 7.466c.087-.547.555-.961 1.12-.961h.004 7.129c.845 0 1.633.055 2.352.172.551.088 1.035.207 1.503.361l-.067-.019c.354.117.683.256.986.416.357-2.276-.003-3.825-1.233-5.229-1.357-1.545-3.805-2.206-6.938-2.206h-9.096c-.64 0-1.186.465-1.285 1.099l-3.789 24.015c-.006.037-.01.079-.01.122 0 .431.349.781.78.782h5.616l1.41-8.945 1.517-9.606z" fill="#253b80"/></svg>