<svg width="25" height="24" viewBox="0 0 25 24" fill="none" xmlns="http://www.w3.org/2000/svg">
<g id="Group">
<path id="Path" d="M2.5 18H9.5" stroke="#121212" stroke-width="1.5" stroke-linecap="round" stroke-linejoin="round"/>
<path id="Path_2" fill-rule="evenodd" clip-rule="evenodd" d="M5.13611 12.6361L2.5 10L4.05279 9.22361C4.33432 9.08285 4.66568 9.08285 4.94721 9.22361L6.5 10L9.69243 8.02314L5.5 4.02314L8.30757 3L13.5 6L18.0011 3.428C18.5937 3.08937 19.3108 3.0478 19.9385 3.31569C20.5663 3.58358 21.0324 4.13001 21.198 4.79218V4.79218C21.3774 5.50966 21.0665 6.26006 20.4324 6.64056L11.8256 11.8046C11.6104 11.9337 11.3729 12.0212 11.1254 12.0624L6.00758 12.9154C5.68903 12.9685 5.36446 12.8645 5.13611 12.6361Z" stroke="#121212" stroke-width="1.5" stroke-linecap="round" stroke-linejoin="round"/>
<path id="Path_3" d="M19.25 18.5L17.75 17.5627V15.8" stroke="#121212" stroke-width="1.5" stroke-linecap="round" stroke-linejoin="round"/>
<circle id="Oval" cx="18" cy="17.5" r="4.5" stroke="#121212" stroke-width="1.5" stroke-linecap="round" stroke-linejoin="round"/>
</g>
</svg>
