<svg height="32" viewBox="0 0 17 32" width="17" xmlns="http://www.w3.org/2000/svg"><path d="m8.342 0c3.573 0 6.48 2.959 6.48 6.596v2.295h.044c.944 0 1.712.781 1.712 1.742v9.6c0 .961-.768 1.742-1.712 1.742h-13.155c-.944 0-1.712-.781-1.712-1.742v-9.596c0-.961.768-1.742 1.712-1.742h.15v-2.295c0-3.637 2.907-6.596 6.48-6.601zm0 2.892c-2.007 0-3.644 1.661-3.644 3.709v2.295h7.288v-2.295c0-2.043-1.632-3.709-3.644-3.709z" fill="#eae9e5"></path><path d="m3.969 20.543v-.487h-.872l.711-1.381c.038-.073.068-.135.09-.186s.038-.102.047-.153.016-.104.019-.16.005-.125.005-.208c0-.115-.013-.223-.04-.325s-.069-.193-.126-.272c-.06-.08-.135-.143-.225-.189s-.198-.069-.324-.069c-.101 0-.196.02-.284.06s-.164.093-.227.16c-.066.067-.118.145-.156.234s-.057.185-.057.287v.268h.483v-.277c0-.08.021-.14.064-.182s.1-.062.173-.062c.06 0 .106.012.137.036s.055.053.071.088.024.076.026.122.002.09.002.131c0 .092-.003.17-.009.232s-.032.135-.076.217l-.872 1.658v.459h1.44zm1.107.028c.095 0 .186-.017.272-.05s.163-.082.23-.146c.066-.064.119-.14.159-.229s.059-.191.059-.306v-.879c0-.201-.051-.351-.154-.451s-.236-.151-.4-.151c-.085 0-.163.015-.232.045s-.126.068-.171.112v-.917h.957v-.459h-1.383v1.834h.426c.003-.006.013-.024.028-.053.009-.022.024-.043.043-.062s.043-.036.071-.05.063-.021.104-.021c.066 0 .121.024.163.072s.064.105.064.172v.798c0 .08-.02.142-.059.186s-.096.067-.168.067c-.073 0-.132-.023-.178-.069s-.069-.111-.069-.193v-.124h-.483v.143c0 .115.02.217.059.306s.092.166.159.229c.066.064.143.112.23.146s.178.05.272.05zm1.827 0c.133 0 .252-.029.358-.086s.19-.139.253-.244c.022-.038.04-.075.054-.11s.026-.078.036-.129c.006-.048.011-.108.014-.179s.005-.163.005-.275c0-.134-.002-.244-.005-.332s-.008-.16-.014-.217c-.009-.057-.021-.104-.033-.139s-.03-.07-.052-.105c-.041-.064-.098-.116-.171-.158s-.152-.062-.237-.062c-.054 0-.097.004-.13.012s-.058.018-.073.031l-.009-.01.549-1.428h-.54l-.635 1.71c-.016.045-.03.087-.043.127s-.022.084-.028.131c-.006.051-.011.111-.014.179s-.005.155-.005.26c0 .111.002.203.005.275s.009.131.019.179c.006.051.017.094.031.129s.034.072.059.11c.063.102.147.182.251.241s.223.088.355.088zm0-.487c-.063 0-.118-.022-.166-.067s-.071-.104-.071-.177v-.631c0-.073.024-.132.071-.177s.103-.067.166-.067.118.022.166.067.071.104.071.177v.631c0 .073-.024.132-.071.177s-.103.067-.166.067zm3.034.487c.199 0 .339-.076.422-.229.028-.054.049-.121.062-.201s.019-.186.019-.32v-.922c0-.175-.005-.304-.014-.387s-.03-.15-.062-.201c-.041-.064-.094-.116-.159-.158s-.156-.062-.272-.062c-.095 0-.179.021-.253.064s-.138.104-.192.184h-.009v-1.199h-.483v3.401h.483v-.22c.06.07.122.129.185.177s.155.072.275.072zm-.218-.487c-.073 0-.131-.028-.175-.084s-.066-.128-.066-.217v-.941c0-.076.023-.139.069-.189s.103-.074.173-.074c.092 0 .154.029.187.086s.05.124.05.201v.889c0 .099-.019.178-.057.239s-.098.091-.18.091zm1.666-2.456v-.487h-.483v.487zm0 2.915v-2.422h-.483v2.422zm1.245 0v-.459c-.054 0-.099-.002-.135-.005s-.067-.013-.092-.029-.043-.04-.054-.072-.017-.076-.017-.134v-1.342h.298v-.382h-.298v-.736h-.483v.736h-.242v.382h.242v1.471c0 .064.01.13.031.198s.053.13.097.184.103.099.178.134.167.053.277.053h.199zm.884.028c.104 0 .201-.019.289-.057s.164-.091.227-.158.113-.144.149-.232.054-.182.054-.284c0-.143-.034-.276-.102-.397s-.192-.217-.372-.287l-.284-.115c-.092-.035-.148-.074-.171-.117s-.033-.087-.033-.131c0-.064.021-.12.062-.17s.099-.074.175-.074c.063 0 .119.021.168.062s.075.104.078.186h.455c0-.099-.017-.192-.052-.279s-.082-.163-.142-.227-.132-.113-.216-.148-.174-.053-.272-.053-.189.017-.275.05-.159.082-.223.146c-.066.064-.118.139-.156.227s-.057.182-.057.284c0 .162.043.3.13.413s.206.198.358.256l.232.086c.092.035.155.076.189.124s.052.105.052.172c0 .083-.028.147-.083.193s-.118.069-.187.069c-.092 0-.156-.029-.192-.086s-.059-.119-.069-.186h-.455c.003.121.025.227.066.318s.095.166.161.227c.133.124.297.186.493.186z" fill="#2a2a2a"></path><path d="m4.172 15.866c.471 0 .928-.074 1.306-.455.318-.321.418-.716.418-1.124 0-.308-.06-.555-.285-.796-.232-.254-.524-.354-.802-.441l-.351-.107c-.272-.08-.351-.161-.385-.201-.046-.06-.06-.12-.06-.201 0-.1.046-.174.113-.241.113-.107.265-.134.378-.134.153 0 .411.027.756.301l.458-.903c-.418-.221-.928-.361-1.366-.361-.537 0-.909.194-1.134.421-.192.194-.405.528-.405 1.077 0 .227.027.542.252.789.179.201.451.301.637.361l.298.094c.285.087.458.134.57.234.093.08.126.181.126.268 0 .114-.046.214-.113.281-.073.08-.212.154-.444.154-.398 0-.769-.221-1.015-.455l-.491.936c.318.221.597.328.67.354.325.12.59.147.869.147zm4.012 0c.471 0 .928-.074 1.306-.455.318-.321.418-.716.418-1.124 0-.308-.06-.555-.285-.796-.232-.254-.524-.354-.802-.441l-.351-.107c-.272-.08-.351-.161-.385-.201-.046-.06-.06-.12-.06-.201 0-.1.046-.174.113-.241.113-.107.265-.134.378-.134.153 0 .411.027.756.301l.458-.903c-.418-.221-.928-.361-1.366-.361-.537 0-.909.194-1.134.421-.192.194-.404.528-.404 1.077 0 .227.027.542.252.789.179.201.451.301.637.361l.298.094c.285.087.458.134.57.234.093.08.126.181.126.268 0 .114-.046.214-.113.281-.073.08-.212.154-.444.154-.398 0-.769-.221-1.015-.455l-.491.936c.318.221.597.328.67.354.325.12.59.147.869.147zm5.364-.101v-.983h-1.379v-3.478h-1.147v4.461h2.527z" fill="#2a2a2a"></path><path d="m1.126 27.373v-1.342h.301c.703 0 .976-.43.976-.865 0-.194-.056-.467-.282-.662-.208-.18-.467-.217-.777-.217h-.56v3.086zm.282-1.665h-.282v-1.096h.254c.222 0 .68.046.68.537 0 .356-.245.56-.652.56zm2.124 1.721c.338 0 .546-.18.657-.324v.268h.333v-1.92h-.333v.273c-.088-.116-.287-.319-.657-.319-.49 0-.935.342-.935 1.004 0 .675.449 1.018.935 1.018zm.037-.296c-.398 0-.629-.31-.629-.722 0-.467.301-.708.629-.708.296 0 .638.217.638.712 0 .379-.231.717-.638.717zm1.748-2.17c.13 0 .236-.106.236-.236s-.106-.236-.236-.236-.236.106-.236.236.106.236.236.236zm.167 2.41v-1.92h-.333v1.92zm1.457.056c.245 0 .463-.079.638-.236.097-.088.18-.204.236-.31l-.278-.153c-.042.093-.111.19-.199.264-.111.093-.236.139-.393.139-.333 0-.606-.254-.611-.652h1.494c.009-.254-.06-.551-.18-.722-.116-.167-.352-.352-.726-.352-.578 0-.93.444-.93 1.018 0 .712.486 1.004.948 1.004zm.546-1.226h-1.129c.051-.287.282-.5.564-.5s.509.199.564.5zm1.185 1.17v-1.046c0-.231.042-.625.421-.625.352 0 .347.398.347.532v1.138h.333v-1.069c0-.231.042-.601.426-.601.315 0 .342.287.342.504v1.166h.333v-1.217c0-.273-.056-.75-.625-.75-.13 0-.393.018-.578.31-.037-.065-.176-.31-.523-.31-.204 0-.37.093-.477.25v-.204h-.333v1.92h.333zm3.664.056c.245 0 .463-.079.638-.236.097-.088.18-.204.236-.31l-.278-.153c-.042.093-.111.19-.199.264-.111.093-.236.139-.393.139-.333 0-.606-.254-.611-.652h1.494c.009-.254-.06-.551-.18-.722-.116-.167-.352-.352-.726-.352-.578 0-.93.444-.93 1.018 0 .712.486 1.004.948 1.004zm.546-1.226h-1.129c.051-.287.282-.5.564-.5s.509.199.564.5zm1.184 1.17v-1.004c0-.139.009-.366.139-.518.097-.116.222-.148.338-.148.148 0 .25.056.315.139.079.102.088.236.088.352v1.18h.333v-1.189c0-.213-.014-.37-.111-.514-.116-.171-.324-.264-.551-.264-.319 0-.49.19-.551.268v-.222h-.333v1.92zm2.184 0v-1.615h.333v-.305h-.333v-.694h-.333v.694h-.204v.305h.204v1.615zm-15.027 4.297c.37 0 .662-.227.662-.629 0-.106-.018-.208-.102-.31-.074-.093-.204-.18-.481-.296-.217-.093-.31-.134-.31-.273 0-.148.111-.217.231-.217.125 0 .222.083.268.194l.273-.143c-.153-.328-.426-.347-.527-.347-.324 0-.56.199-.56.537 0 .097.014.19.088.282.088.106.236.18.467.282.18.079.31.139.31.319 0 .143-.097.305-.315.305-.241 0-.352-.213-.389-.315l-.287.12c.162.481.592.49.671.49zm1.864-2.355.62-.625-.342-.157-.486.671zm.07 2.355c.245 0 .463-.079.638-.236.097-.088.18-.204.236-.31l-.278-.153c-.042.093-.111.19-.199.264-.111.093-.236.139-.393.139-.333 0-.606-.254-.611-.652h1.494c.009-.254-.06-.551-.18-.722-.116-.167-.352-.352-.726-.352-.578 0-.93.444-.93 1.018 0 .712.486 1.004.948 1.004zm.546-1.226h-1.129c.051-.287.282-.5.564-.5s.509.199.564.5zm1.758 1.226c.18 0 .402-.046.611-.199v-.398c-.176.213-.421.301-.62.301-.342 0-.675-.245-.675-.712s.324-.717.68-.717c.171 0 .426.065.601.287v-.398c-.093-.065-.291-.185-.597-.185-.592 0-1.027.43-1.027 1.018 0 .578.43 1.004 1.027 1.004zm1.883 0c.19 0 .416-.06.588-.241.153-.167.176-.342.176-.578v-1.157h-.333v1.12c0 .134 0 .291-.093.412-.051.065-.153.148-.338.148s-.287-.083-.338-.148c-.081-.105-.091-.239-.092-.36v-1.171h-.333v1.157c0 .236.023.412.176.578.171.18.398.241.588.241zm1.725-.056v-1.013c0-.315.056-.444.111-.518.051-.065.134-.12.268-.12.051 0 .12.014.194.065l.157-.301c-.083-.042-.194-.079-.296-.079-.259 0-.402.204-.435.254v-.208h-.333v1.92h.333zm1.203-2.41c.13 0 .236-.106.236-.236s-.106-.236-.236-.236-.236.106-.236.236.106.236.236.236zm.167 2.41v-1.92h-.333v1.92zm1.152.056c.37 0 .662-.227.662-.629 0-.106-.018-.208-.102-.31-.074-.093-.204-.18-.481-.296-.217-.093-.31-.134-.31-.273 0-.148.111-.217.231-.217.125 0 .222.083.268.194l.273-.143c-.153-.328-.426-.347-.527-.347-.324 0-.56.199-.56.537 0 .097.014.19.088.282.088.106.236.18.467.282.18.079.31.139.31.319 0 .143-.097.305-.315.305-.241 0-.352-.213-.389-.315l-.287.12c.162.481.592.49.671.49zm1.864-2.355.62-.625-.342-.157-.486.671zm.07 2.355c.245 0 .463-.079.638-.236.097-.088.18-.204.236-.31l-.278-.153c-.042.093-.111.19-.199.264-.111.093-.236.139-.393.139-.333 0-.606-.254-.611-.652h1.494c.009-.254-.06-.551-.18-.722-.116-.167-.352-.352-.726-.352-.578 0-.93.444-.93 1.018 0 .712.486 1.004.948 1.004zm.546-1.226h-1.129c.051-.287.282-.5.564-.5s.509.199.564.5z" fill="#eae9e5"></path></svg>