<svg height="32" viewBox="0 0 16 32" width="16" xmlns="http://www.w3.org/2000/svg"><path d="m7.959 0c3.409 0 6.183 2.823 6.183 6.293v2.189h.042c.901 0 1.633.745 1.633 1.662v9.159c0 .917-.732 1.662-1.633 1.662h-12.55c-.901 0-1.633-.745-1.633-1.662v-9.155c0-.917.732-1.662 1.633-1.662h.143v-2.189c0-3.47 2.773-6.293 6.183-6.297zm0 2.759c-1.915 0-3.476 1.585-3.476 3.539v2.189h6.953v-2.189c0-1.949-1.557-3.539-3.476-3.539z" fill="#eae9e5"></path><path d="m3.787 19.598v-.465h-.831l.678-1.317c.036-.07.065-.129.086-.178s.036-.097.045-.146.015-.099.018-.153.005-.119.005-.198c0-.109-.013-.213-.038-.31s-.066-.184-.12-.26c-.057-.076-.129-.136-.215-.18s-.189-.066-.31-.066c-.096 0-.187.019-.271.057s-.157.089-.217.153c-.063.064-.113.138-.149.223s-.054.176-.054.273v.255h.461v-.264c0-.076.02-.134.061-.173s.096-.059.165-.059c.057 0 .101.011.131.034s.053.051.068.084.023.072.025.116.002.086.002.125c0 .088-.003.162-.009.221s-.03.128-.072.207l-.831 1.582v.438h1.374zm1.056.028c.09 0 .177-.016.26-.048s.156-.078.219-.139.114-.134.151-.219.056-.182.056-.292v-.839c0-.191-.049-.335-.147-.431s-.225-.144-.382-.144c-.081 0-.155.014-.221.043s-.12.065-.163.107v-.875h.913v-.438h-1.319v1.75h.407c.003-.006.012-.023.027-.05.009-.021.023-.041.041-.059s.041-.034.068-.048.06-.02.099-.02c.063 0 .115.023.156.068s.061.1.061.164v.761c0 .076-.019.135-.056.178s-.091.064-.16.064-.126-.022-.169-.066-.066-.106-.066-.185v-.119h-.461v.137c0 .109.019.207.056.292s.088.158.151.219.136.107.219.139.169.048.26.048zm1.743 0c.127 0 .24-.027.341-.082s.181-.132.242-.232c.021-.036.038-.071.052-.105s.025-.074.034-.123c.006-.046.011-.103.014-.171s.005-.156.005-.262c0-.128-.002-.233-.005-.317s-.008-.153-.014-.207c-.009-.055-.02-.099-.032-.132s-.029-.067-.05-.1c-.039-.061-.093-.111-.163-.15s-.145-.059-.226-.059c-.051 0-.093.004-.124.011s-.055.017-.07.03l-.009-.009.524-1.363h-.515l-.606 1.632c-.015.043-.029.083-.041.121s-.021.08-.027.125c-.006.049-.011.106-.014.171s-.005.148-.005.248c0 .106.002.194.005.262s.009.125.018.171c.006.049.016.09.029.123s.032.068.056.105c.06.097.14.174.239.23s.212.084.339.084zm0-.465c-.06 0-.113-.021-.158-.064s-.068-.099-.068-.169v-.602c0-.07.023-.126.068-.169s.098-.064.158-.064.113.021.158.064.068.099.068.169v.602c0 .07-.023.126-.068.169s-.098.064-.158.064zm2.894.465c.19 0 .324-.073.402-.219.027-.052.047-.115.059-.191s.018-.178.018-.305v-.88c0-.167-.005-.29-.014-.369s-.029-.143-.059-.191c-.039-.061-.09-.111-.151-.15s-.148-.059-.26-.059c-.09 0-.171.02-.242.062s-.132.099-.183.175h-.009v-1.144h-.461v3.245h.461v-.21c.057.067.116.123.176.169s.148.068.262.068zm-.208-.465c-.069 0-.125-.027-.167-.08s-.063-.122-.063-.207v-.898c0-.073.022-.133.066-.18s.099-.071.165-.071c.087 0 .147.027.178.082s.047.119.047.191v.848c0 .094-.018.17-.054.228s-.093.087-.172.087zm1.59-2.343v-.465h-.461v.465zm0 2.78v-2.311h-.461v2.311zm1.187 0v-.438c-.051 0-.094-.002-.129-.005s-.064-.012-.088-.027-.041-.038-.052-.068-.016-.073-.016-.128v-1.281h.285v-.365h-.285v-.702h-.461v.702h-.23v.365h.23v1.404c0 .061.01.124.029.189s.05.124.093.175c.042.052.099.094.169.128s.159.05.264.05h.19zm.844.028c.099 0 .191-.018.276-.055s.157-.087.217-.15c.06-.064.108-.137.142-.221s.052-.174.052-.271c0-.137-.032-.263-.097-.378s-.183-.207-.355-.273l-.271-.109c-.087-.033-.142-.071-.163-.112s-.032-.083-.032-.125c0-.061.02-.115.059-.162s.095-.071.167-.071c.06 0 .114.02.16.059s.072.099.075.178h.434c0-.094-.017-.183-.05-.267s-.078-.156-.136-.216c-.057-.061-.126-.108-.206-.141s-.166-.05-.26-.05c-.093 0-.181.016-.262.048s-.152.078-.212.139c-.063.061-.113.133-.149.216s-.054.174-.054.271c0 .155.041.286.124.394s.197.189.341.244l.221.082c.087.033.148.073.181.119s.05.1.05.164c0 .079-.026.141-.079.185s-.112.066-.178.066c-.087 0-.148-.027-.183-.082s-.056-.114-.066-.178h-.434c.003.115.024.216.063.303s.09.159.154.216c.127.119.283.178.47.178z" fill="#2a2a2a"></path><path d="m3.98 15.136c.449 0 .886-.07 1.246-.434.304-.306.399-.683.399-1.072 0-.294-.057-.53-.272-.759-.221-.242-.5-.338-.766-.421l-.335-.102c-.259-.077-.335-.153-.367-.191-.044-.057-.057-.115-.057-.191 0-.096.044-.166.108-.23.108-.102.253-.128.361-.128.146 0 .392.026.721.287l.437-.861c-.399-.211-.886-.345-1.303-.345-.512 0-.867.185-1.082.402-.183.185-.386.504-.386 1.027 0 .217.025.517.24.753.171.191.43.287.607.345l.285.089c.272.083.437.128.544.223.089.077.12.172.12.255 0 .108-.044.204-.108.268-.07.077-.202.147-.424.147-.38 0-.734-.211-.968-.434l-.468.893c.304.211.569.313.639.338.31.115.563.14.829.14zm3.828 0c.449 0 .886-.07 1.246-.434.304-.306.399-.683.399-1.072 0-.294-.057-.53-.272-.759-.221-.242-.5-.338-.765-.421l-.335-.102c-.259-.077-.335-.153-.367-.191-.044-.057-.057-.115-.057-.191 0-.096.044-.166.108-.23.108-.102.253-.128.361-.128.146 0 .392.026.721.287l.437-.861c-.399-.211-.886-.345-1.303-.345-.512 0-.867.185-1.082.402-.183.185-.386.504-.386 1.027 0 .217.025.517.24.753.171.191.43.287.607.345l.285.089c.272.083.437.128.544.223.089.077.12.172.12.255 0 .108-.044.204-.108.268-.07.077-.202.147-.424.147-.38 0-.734-.211-.968-.434l-.468.893c.304.211.569.313.639.338.31.115.563.14.829.14zm5.117-.096v-.938h-1.316v-3.318h-1.094v4.256z" fill="#2a2a2a"></path><path d="m1.48 26.899c.503 0 .918-.366.918-.861 0-.327-.185-.481-.313-.569-.15-.106-.296-.168-.587-.309-.296-.146-.516-.252-.516-.569 0-.296.199-.547.547-.547.079 0 .397.009.578.362l.141-.119c-.15-.278-.419-.419-.715-.419-.525 0-.755.393-.755.733 0 .115.026.225.093.335.102.168.247.247.538.388.243.119.415.207.499.256.225.137.287.305.287.463 0 .388-.313.68-.711.68-.203 0-.419-.084-.552-.252-.044-.053-.119-.168-.159-.282l-.168.079c.026.075.075.19.19.322.11.128.305.309.684.309zm1.563-2.286c.088 0 .159-.066.159-.163s-.071-.163-.159-.163-.159.066-.159.163.071.163.159.163zm.088 2.238v-1.801h-.177v1.801zm1.443.048c.318 0 .538-.146.658-.252v-.238c-.141.154-.366.322-.653.322-.349 0-.742-.256-.742-.772 0-.441.309-.781.75-.781.296 0 .503.159.622.296v-.234c-.247-.207-.494-.23-.622-.23-.578 0-.936.419-.936.953s.38.936.922.936zm1.32-.048v-.936c0-.177.018-.344.097-.486.066-.119.194-.252.441-.252.216 0 .313.11.353.177.066.102.071.238.071.362v1.134h.177v-1.134c0-.159-.009-.327-.088-.455-.04-.062-.177-.252-.499-.252-.305 0-.468.172-.552.322v-1.699h-.177v3.218h.177zm2.41.048c.446 0 .684-.287.79-.49l-.15-.088c-.115.238-.335.41-.627.41-.38 0-.715-.3-.715-.759h1.54c0-.574-.366-.962-.852-.962-.441 0-.874.322-.874.949 0 .525.327.94.887.94zm.653-1.094h-1.342c.049-.349.309-.627.675-.627.358 0 .622.269.666.627zm.883 1.046v-.967c0-.225.004-.706.366-.706.079 0 .115.022.132.035l.088-.159c-.066-.035-.141-.044-.19-.044-.194 0-.331.119-.397.274v-.234h-.177v1.801h.177zm1.743.048c.446 0 .684-.287.79-.49l-.15-.088c-.115.238-.335.41-.627.41-.38 0-.715-.3-.715-.759h1.54c0-.574-.366-.962-.852-.962-.441 0-.874.322-.874.949 0 .525.327.94.887.94zm.653-1.094h-1.342c.049-.349.309-.627.675-.627.358 0 .622.269.666.627z"></path><path d="m1.48 26.899c.503 0 .918-.366.918-.861 0-.327-.185-.481-.313-.569-.15-.106-.296-.168-.587-.309-.296-.146-.516-.252-.516-.569 0-.296.199-.547.547-.547.079 0 .397.009.578.362l.141-.119c-.15-.278-.419-.419-.715-.419-.525 0-.755.393-.755.733 0 .115.026.225.093.335.102.168.247.247.538.388.243.119.415.207.499.256.225.137.287.305.287.463 0 .388-.313.68-.711.68-.203 0-.419-.084-.552-.252-.044-.053-.119-.168-.159-.282l-.168.079c.026.075.075.19.19.322.11.128.305.309.684.309zm1.563-2.286c.088 0 .159-.066.159-.163s-.071-.163-.159-.163-.159.066-.159.163.071.163.159.163zm.088 2.238v-1.801h-.177v1.801zm1.443.048c.318 0 .538-.146.658-.252v-.238c-.141.154-.366.322-.653.322-.349 0-.742-.256-.742-.772 0-.441.309-.781.75-.781.296 0 .503.159.622.296v-.234c-.247-.207-.494-.23-.622-.23-.578 0-.936.419-.936.953s.38.936.922.936zm1.32-.048v-.936c0-.177.018-.344.097-.486.066-.119.194-.252.441-.252.216 0 .313.11.353.177.066.102.071.238.071.362v1.134h.177v-1.134c0-.159-.009-.327-.088-.455-.04-.062-.177-.252-.499-.252-.305 0-.468.172-.552.322v-1.699h-.177v3.218h.177zm2.41.048c.446 0 .684-.287.79-.49l-.15-.088c-.115.238-.335.41-.627.41-.38 0-.715-.3-.715-.759h1.54c0-.574-.366-.962-.852-.962-.441 0-.874.322-.874.949 0 .525.327.94.887.94zm.653-1.094h-1.342c.049-.349.309-.627.675-.627.358 0 .622.269.666.627zm.883 1.046v-.967c0-.225.004-.706.366-.706.079 0 .115.022.132.035l.088-.159c-.066-.035-.141-.044-.19-.044-.194 0-.331.119-.397.274v-.234h-.177v1.801h.177zm1.743.048c.446 0 .684-.287.79-.49l-.15-.088c-.115.238-.335.41-.627.41-.38 0-.715-.3-.715-.759h1.54c0-.574-.366-.962-.852-.962-.441 0-.874.322-.874.949 0 .525.327.94.887.94zm.653-1.094h-1.342c.049-.349.309-.627.675-.627.358 0 .622.269.666.627z" fill="#eae9e5"></path><path d="m2.601 30.897v-.177h-1.743l1.792-2.767h-1.946v.177h1.62l-1.792 2.767h2.07zm1.02.048c.234 0 .521-.093.702-.371v.322h.177v-1.801h-.177v.313c-.172-.243-.419-.353-.702-.353-.525 0-.878.384-.878.94 0 .591.406.949.878.949zm.013-.168c-.455 0-.706-.388-.706-.794 0-.49.344-.759.702-.759.309 0 .702.225.702.759 0 .415-.247.794-.697.794zm1.677.12v-.936c0-.177.018-.344.097-.486.066-.119.194-.252.441-.252.216 0 .313.11.353.177.066.102.071.238.071.362v1.134h.177v-1.134c0-.159-.009-.327-.088-.455-.04-.062-.177-.252-.499-.252-.305 0-.468.172-.552.322v-1.699h-.177v3.218h.177zm1.863 0v-3.218h-.177v3.218zm1.284.048c.159 0 .375-.044.512-.221.124-.159.137-.349.137-.494v-1.134h-.177v1.086c0 .128-.004.318-.115.45s-.274.146-.358.146-.247-.013-.358-.146c-.098-.118-.112-.281-.114-.405v-1.131h-.177v1.134c0 .146.013.335.137.494.137.177.353.221.512.221zm1.461-.048v-.936c0-.177.018-.344.097-.486.066-.119.194-.252.441-.252.216 0 .313.11.353.177.066.102.071.238.071.362v1.134h.177v-1.134c0-.159-.009-.327-.088-.455-.04-.062-.177-.252-.499-.252-.305 0-.468.172-.552.322v-.282h-.177v1.801h.177zm2.529 1.015c.565 0 .905-.388.905-1.068v-1.748h-.177v.313c-.154-.221-.393-.353-.689-.353-.565 0-.909.419-.909.94 0 .627.446.949.887.949.256 0 .53-.106.711-.358v.256c0 .185-.018.9-.728.9-.384 0-.666-.23-.697-.605h-.185c.022.499.415.772.883.772zm.014-1.135c-.424 0-.697-.34-.697-.772 0-.415.26-.781.706-.781.441 0 .715.344.715.764 0 .441-.278.79-.724.79z"></path><path d="m2.601 30.897v-.177h-1.743l1.792-2.767h-1.946v.177h1.62l-1.792 2.767h2.07zm1.02.048c.234 0 .521-.093.702-.371v.322h.177v-1.801h-.177v.313c-.172-.243-.419-.353-.702-.353-.525 0-.878.384-.878.94 0 .591.406.949.878.949zm.013-.168c-.455 0-.706-.388-.706-.794 0-.49.344-.759.702-.759.309 0 .702.225.702.759 0 .415-.247.794-.697.794zm1.677.12v-.936c0-.177.018-.344.097-.486.066-.119.194-.252.441-.252.216 0 .313.11.353.177.066.102.071.238.071.362v1.134h.177v-1.134c0-.159-.009-.327-.088-.455-.04-.062-.177-.252-.499-.252-.305 0-.468.172-.552.322v-1.699h-.177v3.218h.177zm1.863 0v-3.218h-.177v3.218zm1.284.048c.159 0 .375-.044.512-.221.124-.159.137-.349.137-.494v-1.134h-.177v1.086c0 .128-.004.318-.115.45s-.274.146-.358.146-.247-.013-.358-.146c-.098-.118-.112-.281-.114-.405v-1.131h-.177v1.134c0 .146.013.335.137.494.137.177.353.221.512.221zm1.461-.048v-.936c0-.177.018-.344.097-.486.066-.119.194-.252.441-.252.216 0 .313.11.353.177.066.102.071.238.071.362v1.134h.177v-1.134c0-.159-.009-.327-.088-.455-.04-.062-.177-.252-.499-.252-.305 0-.468.172-.552.322v-.282h-.177v1.801h.177zm2.529 1.015c.565 0 .905-.388.905-1.068v-1.748h-.177v.313c-.154-.221-.393-.353-.689-.353-.565 0-.909.419-.909.94 0 .627.446.949.887.949.256 0 .53-.106.711-.358v.256c0 .185-.018.9-.728.9-.384 0-.666-.23-.697-.605h-.185c.022.499.415.772.883.772zm.014-1.135c-.424 0-.697-.34-.697-.772 0-.415.26-.781.706-.781.441 0 .715.344.715.764 0 .441-.278.79-.724.79z" fill="#eae9e5"></path></svg>