  <svg
    viewBox="0 0 141 24"
    fill="none"
    xmlns="http://www.w3.org/2000/svg"
  >
    <path
      fill-rule="evenodd"
      clip-rule="evenodd"
      d="M7.73122 20.8327C7.22415 21.0974 6.61071 21.0508 6.14944 20.7125C5.68817 20.3743 5.45931 19.8032 5.55932 19.24L6.36866 14.6011L2.96124 11.3357C2.54474 10.9385 2.3921 10.3381 2.56833 9.79024C2.74457 9.24235 3.21862 8.84353 3.78858 8.76365L8.51955 8.08737L10.6554 3.82659C10.9087 3.3156 11.4297 2.99232 12 2.99232C12.5703 2.99232 13.0913 3.3156 13.3446 3.82659L15.4805 8.08737L20.2114 8.76365C20.7814 8.84353 21.2554 9.24235 21.4317 9.79024C21.6079 10.3381 21.4553 10.9385 21.0388 11.3357L17.6313 14.6011L18.4407 19.241C18.5407 19.8042 18.3118 20.3753 17.8506 20.7135C17.3893 21.0518 16.7759 21.0984 16.2688 20.8337L12 18.6278L7.73122 20.8327Z"
      stroke="currentColor"
      stroke-width="1.5"
      stroke-linecap="round"
      stroke-linejoin="round"
    />
    <path
      fill-rule="evenodd"
      clip-rule="evenodd"
      d="M35.7312 20.8327C35.2242 21.0974 34.6107 21.0508 34.1494 20.7125C33.6882 20.3743 33.4593 19.8032 33.5593 19.24L34.3687 14.6011L30.9612 11.3357C30.5447 10.9385 30.3921 10.3381 30.5683 9.79024C30.7446 9.24235 31.2186 8.84353 31.7886 8.76365L36.5196 8.08737L38.6554 3.82659C38.9087 3.3156 39.4297 2.99232 40 2.99232C40.5703 2.99232 41.0913 3.3156 41.3446 3.82659L43.4805 8.08737L48.2114 8.76365C48.7814 8.84353 49.2554 9.24235 49.4317 9.79024C49.6079 10.3381 49.4553 10.9385 49.0388 11.3357L45.6313 14.6011L46.4407 19.241C46.5407 19.8042 46.3118 20.3753 45.8506 20.7135C45.3893 21.0518 44.7759 21.0984 44.2688 20.8337L40 18.6278L35.7312 20.8327Z"
      stroke="currentColor"
      stroke-width="1.5"
      stroke-linecap="round"
      stroke-linejoin="round"
    />
    <path
      fill-rule="evenodd"
      clip-rule="evenodd"
      d="M63.7312 20.8327C63.2242 21.0974 62.6107 21.0508 62.1494 20.7125C61.6882 20.3743 61.4593 19.8032 61.5593 19.24L62.3687 14.6011L58.9612 11.3357C58.5447 10.9385 58.3921 10.3381 58.5683 9.79024C58.7446 9.24235 59.2186 8.84353 59.7886 8.76365L64.5196 8.08737L66.6554 3.82659C66.9087 3.3156 67.4297 2.99232 68 2.99232C68.5703 2.99232 69.0913 3.3156 69.3446 3.82659L71.4805 8.08737L76.2114 8.76365C76.7814 8.84353 77.2554 9.24235 77.4317 9.79024C77.6079 10.3381 77.4553 10.9385 77.0388 11.3357L73.6313 14.6011L74.4407 19.241C74.5407 19.8042 74.3118 20.3753 73.8506 20.7135C73.3893 21.0518 72.7759 21.0984 72.2688 20.8337L68 18.6278L63.7312 20.8327Z"
      stroke="currentColor"
      stroke-width="1.5"
      stroke-linecap="round"
      stroke-linejoin="round"
    />
    <path
      fill-rule="evenodd"
      clip-rule="evenodd"
      d="M91.7312 20.8327C91.2242 21.0974 90.6107 21.0508 90.1494 20.7125C89.6882 20.3743 89.4593 19.8032 89.5593 19.24L90.3687 14.6011L86.9612 11.3357C86.5447 10.9385 86.3921 10.3381 86.5683 9.79024C86.7446 9.24235 87.2186 8.84353 87.7886 8.76365L92.5196 8.08737L94.6554 3.82659C94.9087 3.3156 95.4297 2.99232 96 2.99232C96.5703 2.99232 97.0913 3.3156 97.3446 3.82659L99.4805 8.08737L104.211 8.76365C104.781 8.84353 105.255 9.24235 105.432 9.79024C105.608 10.3381 105.455 10.9385 105.039 11.3357L101.631 14.6011L102.441 19.241C102.541 19.8042 102.312 20.3753 101.851 20.7135C101.389 21.0518 100.776 21.0984 100.269 20.8337L96 18.6278L91.7312 20.8327Z"
      stroke="currentColor"
      stroke-width="1.5"
      stroke-linecap="round"
      stroke-linejoin="round"
    />
    <path
      d="M118.578 21.22C115.146 21.22 112.858 18.998 112.616 16.314H114.53C114.794 17.81 116.004 19.372 118.622 19.372C120.844 19.372 122.538 18.426 122.56 16.49C122.56 14.4 120.206 13.762 118.094 13.014C115.674 12.178 113.122 11.254 113.122 8.592C113.122 5.754 115.872 4.28 118.622 4.28C122.208 4.28 123.968 6.106 124.43 8.812H122.67C122.472 7.382 121.152 5.952 118.644 5.952C116.972 5.952 115.124 6.744 115.124 8.482C115.124 10.176 117.17 10.836 119.106 11.584C121.482 12.508 124.54 13.344 124.54 16.424C124.54 19.548 121.702 21.22 118.578 21.22ZM128.45 4.5H135.27C137.844 4.5 139.89 6.832 139.89 9.406C139.89 11.98 137.844 14.268 135.27 14.268H130.386V21H128.45V4.5ZM130.386 12.64H135.138C136.766 12.64 138.13 11.144 138.13 9.428C138.13 7.734 136.766 6.216 135.138 6.216H130.386V12.64Z"
      fill="currentColor"
    />
  </svg>

