<svg height="32" viewBox="0 0 32 32" width="32" xmlns="http://www.w3.org/2000/svg"><g fill="currentColor"><path d="m15.987 0c-8.83 0-15.987 7.158-15.987 15.987s7.158 15.988 15.987 15.988c8.83 0 15.988-7.158 15.988-15.988-.01-8.825-7.162-15.977-15.988-15.987zm0 30.376c-7.947 0-14.389-6.442-14.389-14.389s6.442-14.389 14.389-14.389 14.389 6.442 14.389 14.389c-.009 7.943-6.446 14.38-14.389 14.389z"/><path d="m20.959 11.491-5.837 7.296-3.365-3.364c-.314-.303-.812-.299-1.121.01s-.313.807-.01 1.121l3.997 3.997c.15.15.353.234.565.234.015 0 .03 0 .044-.002.227-.012.438-.121.58-.298l6.395-7.994c.276-.345.22-.848-.125-1.124s-.848-.22-1.124.125z"/></g></svg>