<svg width="32" height="32" viewBox="0 0 32 32" fill="none" xmlns="http://www.w3.org/2000/svg">
<path d="M15.9998 28.001C9.54034 28.0312 4.21654 22.9417 3.95621 16.4874C3.69587 10.0331 8.59245 4.53127 15.0334 4.04109C21.4743 3.55092 27.1471 8.24833 27.8665 14.6677" stroke="currentColor" stroke-width="1.75" stroke-linecap="round" stroke-linejoin="round"/>
<path d="M10.667 16.6677H16.667V9.33435" stroke="currentColor" stroke-width="1.75" stroke-linecap="round" stroke-linejoin="round"/>
<path d="M18.44 26.001V25.091C21.68 21.681 21.98 21.321 21.98 20.631C21.98 19.841 21.43 19.511 20.87 19.501C20.22 19.491 19.72 19.951 19.76 20.691L18.55 20.681C18.47 19.321 19.6 18.391 20.93 18.391C22.19 18.391 23.17 19.231 23.19 20.491C23.21 21.681 22.65 22.261 20.1 24.891H23.38V26.001H18.44ZM29.4515 23.311V24.421H28.7515V26.001H27.5015V24.421H23.9215V23.621L27.1815 18.501H28.7515V23.311H29.4515ZM25.3615 23.311H27.5015V19.751L25.3615 23.311Z" fill="currentColor"/>
</svg>
