
  <svg
    fill="none"
    viewBox="0 0 41 40"
    xmlns="http://www.w3.org/2000/svg"
  >
    <path
      clip-rule="evenodd"
      d="m6.25 12.5c0-3.72745 3.02255-6.75 6.75-6.75h15.0067c3.7241 0 6.7433 3.01921 6.7433 6.7433v15.015c0 3.7224-3.0191 6.7417-6.7433 6.7417h-15.0134c-3.72409 0-6.7433-3.0192-6.7433-6.7433zm21.7567-8.25h-15.0067c-4.55588 0-8.25 3.69412-8.25 8.25v15.0067c0 4.5525 3.69079 8.2433 8.2433 8.2433h15.0134c4.5524 0 8.2433-3.6907 8.2433-8.2417v-15.015c0-4.55251-3.6908-8.2433-8.2433-8.2433zm-14.4295 7.9779c-.1226-.2281-.3541-.3768-.6125-.3933-.2584-.0166-.5071.1012-.6579.3118-2.58413 3.6088-2.5499 8.4911.2974 12.0851l-.4135.1383c-.3729.1247-.7464.2494-1.0286.3431-.1411.047-.2588.0859-.3418.1132l-.0947.031-.0097.003c-.0293.0082-.0583.0182-.0869.03-.0842.0349-.1599.0844-.2246.1449-.0804.075-.1411.1646-.1811.2616-.0402.0971-.0604.2036-.0563.3135.0031.0884.0219.1768.0569.2608.0249.0602.0573.116.0958.1665.6928.9481 1.5048 2.0378 2.6874 2.8747 1.2105.8566 2.7649 1.4209 4.9095 1.4209 3.6907 0 6.6546-1.3249 8.6874-3.6288 1.9799-2.2439 3.0184-5.3492 3.0612-8.892l1.8754-2.8132c.1535-.2301.1678-.526.0373-.7699-.1305-.2438-.3847-.3961-.6613-.3961h-2.6125c-.4215-.5544-.9375-1.0275-1.5881-1.3748-.7771-.4148-1.6999-.6252-2.7994-.6252-1.6601 0-3.0841.5994-4.1048 1.6423-.8071.8247-1.336 1.8998-1.5462 3.1127-1.9097-.7615-3.6766-2.4777-4.6884-4.3601zm.1133 13.2218.4644-.1556c.2456-.0823.4313-.2855.4913-.5374s-.0142-.517-.1964-.7011c-2.7829-2.8135-3.238-6.8387-1.5366-10.0463 1.3833 1.9992 3.5029 3.7373 5.8261 4.3025.2194.0533.4512.005.631-.1316.1798-.1365.2885-.3469.2959-.5725.0421-1.28.4943-2.3441 1.2177-3.0832.7193-.7351 1.7479-1.1915 3.0327-1.1915.9055 0 1.5753.1721 2.0931.4485.5163.2756.9278.6795 1.2809 1.2146.1388.2103.374.3369.626.3369h1.5986l-1.217 1.8255c-.0432.0628-.077.1325-.0996.2071s-.0331.1513-.032.2275c-.0019 3.3575-.9616 6.1628-2.6874 8.1187-1.7172 1.9461-4.2533 3.1212-7.5626 3.1212-1.8554 0-3.1026-.4798-4.043-1.1453-.6808-.4818-1.2231-1.0749-1.7305-1.7205l.5232-.1748c.3732-.1247.7453-.2493 1.0242-.3427z"
      fill="currentColor"
      fill-rule="evenodd"
      style="stroke:none"
    />
  </svg>

