<svg width="40" height="40" viewBox="0 0 40 40" fill="none" xmlns="http://www.w3.org/2000/svg">
<path d="M20.782 5.03797C23.0549 7.31082 23.0549 10.9958 20.782 13.2687C18.5092 15.5415 14.8241 15.5415 12.5513 13.2687C10.2784 10.9958 10.2784 7.31082 12.5513 5.03797C14.8241 2.76512 18.5092 2.76512 20.782 5.03797" stroke="#323232" strokeWidth="2" strokeLinecap="round" strokeLinejoin="round"/>
<path d="M23.9383 21.3267C21.7733 20.4617 19.2333 19.985 16.6667 19.985C9.92001 19.985 3.33334 23.2633 3.33334 28.305V29.9717C3.33334 30.8917 4.08001 31.6383 5.00001 31.6383H20.6883" stroke="#323232" strokeWidth="2" strokeLinecap="round" strokeLinejoin="round"/>
<path d="M28.3333 36.6667C23.7317 36.6667 20 32.9367 20 28.3333C20 23.8267 23.8333 19.995 28.34 20C32.94 20.0033 36.6667 23.7333 36.6667 28.3333C36.6667 32.935 32.9367 36.6667 28.3333 36.6667" stroke="#323232" strokeWidth="2" strokeLinecap="round" strokeLinejoin="round"/>
<path d="M25.4167 31.25L31.25 25.4167" stroke="#323232" strokeWidth="2" strokeLinecap="round" strokeLinejoin="round"/>
<path d="M31.514 31.046C31.6442 31.1762 31.6442 31.3872 31.514 31.5174C31.3838 31.6476 31.1728 31.6476 31.0426 31.5174C30.9124 31.3872 30.9124 31.1762 31.0426 31.046C31.1728 30.9158 31.3838 30.9158 31.514 31.046" stroke="#323232" strokeWidth="2" strokeLinecap="round" strokeLinejoin="round"/>
<path d="M25.6257 25.1493C25.7559 25.2795 25.7559 25.4906 25.6257 25.6207C25.4955 25.7509 25.2844 25.7509 25.1543 25.6207C25.0241 25.4906 25.0241 25.2795 25.1543 25.1493C25.2844 25.0192 25.4955 25.0192 25.6257 25.1493" stroke="#323232" strokeWidth="2" strokeLinecap="round" strokeLinejoin="round"/>
</svg>
