<svg width="41" height="40" viewBox="0 0 41 40" fill="none" xmlns="http://www.w3.org/2000/svg">
<path d="M7.16669 19.8433V13.485C7.16669 11.405 8.45502 9.54167 10.4 8.80667L24.3217 3.55C26.5034 2.72834 28.8334 4.33834 28.8334 6.67V12.2533" stroke="#323232" strokeWidth="2" strokeLinecap="round" strokeLinejoin="round"/>
<path d="M29.2484 23.5017C29.0184 23.5033 28.8334 23.69 28.8334 23.92C28.8334 24.15 29.02 24.3367 29.25 24.335C29.48 24.335 29.6667 24.1483 29.6667 23.9183C29.6667 23.6883 29.48 23.5017 29.2484 23.5017" stroke="#323232" strokeWidth="2" strokeLinecap="round" strokeLinejoin="round"/>
<path d="M18.27 35H30.5C33.25 35 35.5 32.75 35.5 30V17.2517C35.5 14.49 33.2617 12.2517 30.5 12.2517H10.5C8.65835 12.2517 7.16669 13.7433 7.16669 15.585V20.4283" stroke="#323232" strokeWidth="2" strokeLinecap="round" strokeLinejoin="round"/>
<path d="M13 36.6667C7.93831 36.6667 3.83331 32.5617 3.83331 27.5C3.83331 22.4383 7.93831 18.3333 13 18.3333C18.0633 18.3333 22.1666 22.4383 22.1666 27.5C22.1666 32.5617 18.0633 36.6667 13 36.6667" stroke="#323232" strokeWidth="2" strokeLinecap="round" strokeLinejoin="round"/>
<path d="M13 23.845V31.1567" stroke="#323232" strokeWidth="2" strokeLinecap="round" strokeLinejoin="round"/>
<path d="M16.655 27.5H9.34497" stroke="#323232" strokeWidth="2" strokeLinecap="round" strokeLinejoin="round"/>
</svg>
