  <svg
    viewBox="0 0 32 32"
    xmlns="http://www.w3.org/2000/svg"
  >
    <path d="m30.2 15.792v-6.373c0-1.473-1.196-2.672-2.667-2.672h-.904l.2-.698c.326-1.135-.327-2.319-1.46-2.646l-6.051-1.746c-.283-.082-.579.082-.66.366s.082.58.365.661l3.804 1.097c-.471.919-.488 2.015-.012 2.964h-11.149v-4.209c0-.295-.239-.534-.533-.534s-.533.239-.533.534v4.209h-1.8v-4.209c0-.295-.239-.534-.533-.534s-.533.239-.533.534v4.209h-2.333v-4.61c0-.589.479-1.069 1.067-1.069h9c.588 0 1.067.48 1.067 1.069v2.939c0 .295.239.534.533.534s.533-.239.533-.534v-2.939c0-1.179-.957-2.138-2.133-2.138h-9c-1.176 0-2.133.959-2.133 2.138v4.61h-1.667c-1.47 0-2.667 1.199-2.667 2.672v19.908c0 1.473 1.196 2.672 2.667 2.672h24.867c1.47 0 2.667-1.199 2.667-2.672v-3.908c0-.295-.239-.534-.533-.534s-.533.239-.533.534v3.908c0 .884-.718 1.603-1.6 1.603h-24.867c-.882 0-1.6-.719-1.6-1.603v-19.908c0-.884.718-1.603 1.6-1.603h24.867c.882 0 1.6.719 1.6 1.603v6.347h-4.4c-1.176 0-2.133.959-2.133 2.138v2.939c0 1.179.957 2.138 2.133 2.138h5.135c1.171 0 2.132-.956 2.132-2.138v-2.939c0-1.065-.781-1.951-1.8-2.112zm-6.318-11.705 1.193.344c.567.163.893.755.73 1.323l-.285.993h-1.426c-.673-.751-.736-1.842-.212-2.66zm7.051 16.756c0 .589-.479 1.069-1.067 1.069h-5.133c-.588 0-1.067-.48-1.067-1.069v-2.939c0-.589.479-1.069 1.067-1.069h5.133c.588 0 1.067.48 1.067 1.069zm-4.2-1.469c0 .295-.239.534-.533.534h-.8c-.295 0-.533-.239-.533-.534s.239-.534.533-.534h.8c.295 0 .533.239.533.534z" />
  </svg>

