<svg width="2192" height="384" viewBox="0 0 2192 384" xmlns="http://www.w3.org/2000/svg">
<path d="M1157.39 21.3101C1157.39 41.8601 1174.06 58.5301 1194.61 58.5301C1215.16 58.5301 1231.85 41.8601 1231.85 21.3101H1157.39Z" />
<path d="M529.68 228.16L635.57 377.93H562.05L491.84 273.13L421.61 377.93H348.09L453.43 227.61L348.09 76.1899H421.07L491.84 182.62L562.61 76.1899H635.57L529.68 228.16Z" />
<path d="M1225.62 76.1802H1163.63V377.92H1225.62V76.1802Z" />
<path d="M1256.24 225.96C1256.24 137.09 1312.75 73.4502 1398.88 73.4502C1491.04 73.4502 1532.73 132.15 1538.21 183.71H1482.26C1477.32 151.35 1444.96 125.01 1403.8 125.01C1349.5 125.01 1317.68 165.06 1317.68 225.95C1317.68 286.84 1350.04 328 1404.36 328C1444.4 328 1474.59 300.02 1482.26 268.2H1537.66C1529.44 320.31 1491.58 381.21 1398.87 381.21C1312.73 381.21 1256.23 315.38 1256.23 225.95"/>
<path d="M1557.25 225.96C1557.25 137.09 1613.76 73.4502 1699.89 73.4502C1792.05 73.4502 1833.74 132.15 1839.24 183.71H1783.28C1778.34 151.35 1745.98 125.01 1704.84 125.01C1650.52 125.01 1618.7 165.06 1618.7 225.95C1618.7 286.84 1651.06 328 1705.38 328C1745.42 328 1775.61 300.02 1783.28 268.2H1838.68C1830.46 320.31 1792.6 381.21 1699.89 381.21C1613.75 381.21 1557.25 315.38 1557.25 225.95"/>
<path d="M629.86 226.09C629.86 138.47 691.98 69.1401 781.26 69.1401C870.54 69.1401 932.66 138.48 932.66 226.09C932.66 313.7 870.55 383.04 781.26 383.04C691.97 383.04 629.86 313.16 629.86 226.09ZM870 226.09C870 169.52 834.51 125.15 781.26 125.15C728.01 125.15 692.52 169.52 692.52 226.09C692.52 282.66 727.47 326.47 781.26 326.47C835.05 326.47 870 282.1 870 226.09Z"/>
<path d="M1042.19 0H982.95V59.37C982.95 64.72 978.6 69.05 973.27 69.05H934.12V119.25H983.45V303.33C983.35 346.07 1017.89 380.8 1060.61 380.97L1120.44 381.22V326.74H1061.35C1050.66 326.74 1041.98 318.08 1041.98 307.37V119.26H1105.57V69.06H1042.2V0H1042.19Z"/>
<path d="M361.47 225.96C361.47 134.34 309.34 74 224.86 74C140.38 74 93.1 127.18 83.83 201.28H79.79C61.18 201.28 46.04 186.13 46.04 167.53H0C0 211.52 35.8 247.31 79.79 247.31H83.3C91.27 323.94 144.57 380.66 224.86 380.66C308.81 381.22 346.65 328.55 353.78 285.2H302.21C290.68 314.83 261.61 331.84 224.31 331.84C184.82 331.3 145.31 301.67 142.01 246.25H360.36C361.46 239.12 361.46 231.99 361.46 225.96M143.11 201.27C150.24 155.19 176.58 123.37 224.3 123.37C272.02 123.37 297.26 154.09 302.74 201.27H143.1H143.11Z"/>
<path d="M2191.65 154.95H2145.6C2145.6 173.56 2130.46 188.7 2111.85 188.7H2109.53V183.73C2109.53 110.77 2063.45 72.9102 1990.49 72.9102C1907.1 72.9102 1871.45 124.49 1867.05 178.25H1920.82C1924.66 141.49 1952.08 122.29 1988.84 122.29C2027.79 122.29 2052.48 140.95 2052.48 182.63V188.59L1983.36 195.67C1901.16 203.18 1859.38 238.59 1859.38 292.35C1859.38 346.11 1901.62 381.24 1959.22 381.24C2002.01 381.24 2041.52 363.14 2057.97 339.54C2066.75 368.07 2089.79 374.65 2114.48 377.4C2121.07 377.94 2127.1 377.94 2133.14 377.94V330.21C2119.42 330.75 2110.1 321.43 2110.1 290.72C2110.1 281.69 2109.89 260.07 2109.74 234.76H2111.86C2155.87 234.76 2191.65 198.97 2191.65 154.97M2052.48 280.85C2044.25 308.83 2009.69 332.96 1971.29 332.96C1944.96 332.96 1919.72 317.61 1919.72 290.17C1919.72 264.4 1938.91 246.92 1992.68 240.25L2052.48 234.77V280.85Z"/>
</svg>
