<svg  viewBox="0 0 32 32" xmlns="http://www.w3.org/2000/svg"><path d="m20.203 18.963c4.107 0 7.45 3.275 7.558 7.356l.003.205v3.16c0 .685-.555 1.24-1.24 1.24-.649 0-1.181-.498-1.235-1.133l-.005-.107v-3.16c0-2.748-2.181-4.986-4.906-5.078l-.175-.003h-12.642c-2.748 0-4.986 2.181-5.078 4.906l-.003.175v3.16c0 .685-.555 1.24-1.24 1.24-.649 0-1.181-.498-1.235-1.133l-.005-.107v-3.16c0-4.107 3.275-7.45 7.356-7.558l.205-.003z"/><path d="m13.882 0c-4.176 0-7.561 3.385-7.561 7.561s3.385 7.561 7.561 7.561 7.561-3.385 7.561-7.561-3.385-7.561-7.561-7.561zm0 2.48c2.806 0 5.081 2.275 5.081 5.081s-2.275 5.081-5.081 5.081-5.081-2.275-5.081-5.081 2.275-5.081 5.081-5.081z"/></svg>