
  <svg
    viewBox="0 0 24 24"
    fill="none"
    xmlns="http://www.w3.org/2000/svg"
  >
    <path
      d="M13.4996 14L9.79252 10.2929C9.60499 10.1054 9.35064 10 9.08542 10H8.00097C7.652 10 7.32827 10.1819 7.14681 10.48C6.96535 10.7781 6.9524 11.1492 7.11264 11.4592L8.42605 14"
      stroke="currentColor"
      strokeWidth="1.5"
      strokeLinecap="round"
      strokeLinejoin="round"
    />
    <path
      d="M22 11.0001H18.25C17.5596 11.0001 17 10.4405 17 9.75014V8.75014C17 8.05978 16.4404 7.50014 15.75 7.50014H14.75C14.4185 7.50014 14.1005 7.36844 13.8661 7.13402C13.6317 6.8996 13.5 6.58166 13.5 6.25014V2.01514"
      stroke="currentColor"
      strokeWidth="1.5"
      strokeLinecap="round"
      strokeLinejoin="round"
    />
    <path
      d="M5.76074 6.99988C7.40835 3.35065 11.3802 1.34701 15.2942 2.19057C19.2083 3.03414 22.0022 6.49595 22.0004 10.4999V10.9999"
      stroke="currentColor"
      strokeWidth="1.5"
      strokeLinecap="round"
      strokeLinejoin="round"
    />
    <path
      fillRule="evenodd"
      clipRule="evenodd"
      d="M12.5002 18L8.79311 21.7071C8.60558 21.8946 8.35123 22 8.08601 22H7.00156C6.65259 22 6.32886 21.8181 6.1474 21.52C5.96594 21.2219 5.95299 20.8508 6.11323 20.5408L7.42664 18H5.05508C4.19422 18 3.42994 17.4491 3.15771 16.6325L2.0523 13.3162C1.95065 13.0113 2.00179 12.6761 2.18974 12.4153C2.37769 12.1545 2.67955 12 3.00099 12H3.99553C4.3743 12 4.72056 12.214 4.88995 12.5528L5.61356 14H16.0002C17.1048 14 18.0002 14.8954 18.0002 16V16C18.0002 17.1046 17.1048 18 16.0002 18H12.5002Z"
      stroke="currentColor"
      strokeWidth="1.5"
      strokeLinecap="round"
      strokeLinejoin="round"
    />
  </svg>

