
  <svg
    fill="none"
    viewBox="0 0 21 20"
    xmlns="http://www.w3.org/2000/svg"
  >
    <g clip-rule="evenodd" fill="currentColor" fill-rule="evenodd">
      <path d="m9.17574 9.17574c.23431-.23432.61421-.23432.84856 0l2.0833 2.08336c.2343.2343.2343.6142 0 .8485s-.6142.2343-.8485 0l-2.08336-2.0833c-.23432-.23435-.23432-.61425 0-.84856z" />
      <path d="m12.1076 9.17574c.2343.23431.2343.61421 0 .84856l-2.0833 2.0833c-.23435.2343-.61425.2343-.84856 0-.23432-.2343-.23432-.6142 0-.8485l2.08336-2.08336c.2343-.23432.6142-.23432.8485 0z" />
      <path d="m7.18334 2.4999c0-.33137-.26863-.6-.6-.6s-.6.26863-.6.6v.9h-.48335c-1.71208 0-3.1 1.38792-3.1 3.1v8.75c0 1.7121 1.38792 3.1 3.1 3.1h8.13111c.8222 0 1.6107-.3266 2.1921-.908l1.8688-1.8688c.5814-.5814.908-1.3699.908-2.1921v-6.8811c0-1.71208-1.3879-3.1-3.1-3.1h-.8167v-.9c0-.33137-.2686-.6-.6-.6s-.6.26863-.6.6v.9h-6.29996zm-1.68335 2.1h.48335v.4c0 .33137.26863.6.6.6s.6-.26863.6-.6v-.4h6.29996v.4c0 .33137.2686.6.6.6s.6-.26863.6-.6v-.4h.8167c1.0493 0 1.9.85066 1.9 1.9v5.8168h-2.4833c-1.2519 0-2.2667 1.0148-2.2667 2.2666v2.5666h-7.15001c-1.04934 0-1.9-.8507-1.9-1.9v-8.75c0-1.04934.85066-1.9 1.9-1.9zm8.35001 12.5374c.4233-.0491.8203-.2396 1.1246-.5439l1.8689-1.8689c.3242-.3242.5192-.7535.5517-1.2078h-2.4785c-.5891 0-1.0667.4775-1.0667 1.0666z" />
    </g>
  </svg>

