
  <svg
    viewBox="0 0 24 24"
    fill="none"
    xmlns="http://www.w3.org/2000/svg"
  >
    <path
      fillRule="evenodd"
      clipRule="evenodd"
      d="M3.90032 15.6468L5.29832 15.8608C6.33032 16.0188 7.06732 16.9428 6.99132 17.9838L6.88832 19.3948C6.85832 19.8058 7.08232 20.1928 7.45332 20.3718L8.48732 20.8698C8.85832 21.0488 9.30132 20.9818 9.60432 20.7028L10.6433 19.7428C11.4093 19.0348 12.5913 19.0348 13.3583 19.7428L14.3973 20.7028C14.7003 20.9828 15.1423 21.0488 15.5143 20.8698L16.5503 20.3708C16.9203 20.1928 17.1433 19.8068 17.1133 19.3968L17.0103 17.9838C16.9343 16.9428 17.6713 16.0188 18.7033 15.8608L20.1013 15.6468C20.5083 15.5848 20.8363 15.2798 20.9283 14.8778L21.1833 13.7598C21.2753 13.3578 21.1123 12.9408 20.7723 12.7088L19.6053 11.9098C18.7443 11.3198 18.4813 10.1678 19.0013 9.26278L19.7063 8.03678C19.9113 7.67978 19.8773 7.23278 19.6203 6.91078L18.9053 6.01378C18.6483 5.69178 18.2203 5.55878 17.8263 5.67978L16.4743 6.09378C15.4753 6.39978 14.4103 5.88678 14.0263 4.91578L13.5083 3.60278C13.3563 3.21878 12.9853 2.96678 12.5723 2.96778L11.4263 2.97078C11.0133 2.97178 10.6433 3.22578 10.4933 3.61078L9.98832 4.90878C9.60832 5.88578 8.53832 6.40278 7.53632 6.09478L6.12832 5.66278C5.73332 5.54078 5.30332 5.67478 5.04632 5.99878L4.33632 6.89678C4.07932 7.22178 4.04832 7.66978 4.25732 8.02678L4.97832 9.25578C5.50932 10.1618 5.24932 11.3248 4.38332 11.9178L3.23032 12.7078C2.89032 12.9408 2.72732 13.3578 2.81932 13.7588L3.07432 14.8768C3.16532 15.2798 3.49332 15.5848 3.90032 15.6468V15.6468Z"
      stroke="#121212"
      strokeWidth="1.5"
      strokeLinecap="round"
      strokeLinejoin="round"
    />
    <path
      d="M13.9165 10.0835C14.9745 11.1415 14.9745 12.8575 13.9165 13.9155C12.8585 14.9735 11.1425 14.9735 10.0845 13.9155C9.02652 12.8575 9.02652 11.1415 10.0845 10.0835C11.1425 9.02554 12.8585 9.02554 13.9165 10.0835"
      stroke="#121212"
      strokeWidth="1.5"
      strokeLinecap="round"
      strokeLinejoin="round"
    />
  </svg>

