
  <svg
    width="14"
    height="14"
    viewBox="0 0 14 14"
    fill="none"
    xmlns="http://www.w3.org/2000/svg"
  >
    <path
      fillRule="evenodd"
      clipRule="evenodd"
      d="M7 1.75V1.75C9.89975 1.75 12.25 4.10025 12.25 7V7C12.25 9.89975 9.89975 12.25 7 12.25V12.25C4.10025 12.25 1.75 9.89975 1.75 7V7C1.75 4.10025 4.10025 1.75 7 1.75Z"
      stroke="currentColor"
      strokeWidth="1.5"
      strokeLinecap="round"
      strokeLinejoin="round"
    />
    <path
      d="M7.00016 7.29167V4.375"
      stroke="currentColor"
      strokeWidth="1.5"
      strokeLinecap="round"
      strokeLinejoin="round"
    />
    <path
      d="M6.99958 9.33333C6.91908 9.33333 6.85375 9.39867 6.85433 9.47917C6.85433 9.55967 6.91966 9.625 7.00016 9.625C7.08066 9.625 7.146 9.55967 7.146 9.47917C7.146 9.39867 7.08066 9.33333 6.99958 9.33333"
      stroke="currentColor"
      strokeWidth="1.5"
      strokeLinecap="round"
      strokeLinejoin="round"
    />
  </svg>

