
  <svg
    height="32"
    viewBox="0 0 45 32"
    width="45"
    xmlns="http://www.w3.org/2000/svg"
  >
    <path d="m21.333.747c-5.755 0-10.823 2.563-15.151 6.795-1.496 1.463-2.798 3.027-3.901 4.593-.666.946-1.123 1.69-1.366 2.135-.226.414-.226.914 0 1.328l.222.388c.262.441.644 1.037 1.144 1.747 1.103 1.565 2.404 3.13 3.901 4.593 4.328 4.232 9.396 6.795 15.151 6.795s10.823-2.563 15.151-6.795c1.496-1.463 2.798-3.027 3.901-4.593.666-.946 1.123-1.69 1.366-2.135.226-.414.226-.914 0-1.328l-.222-.388c-.262-.441-.644-1.037-1.144-1.747-1.103-1.565-2.404-3.13-3.901-4.593-4.328-4.232-9.396-6.795-15.151-6.795zm0 2.773c4.936 0 9.359 2.237 13.212 6.005 1.367 1.337 2.562 2.773 3.572 4.207l.414.602.389.597-.389.602c-.125.187-.263.388-.414.602-1.011 1.435-2.205 2.87-3.572 4.207-3.854 3.768-8.277 6.005-13.212 6.005s-9.359-2.237-13.212-6.005c-1.367-1.337-2.562-2.773-3.572-4.207l-.414-.602-.391-.602.391-.597c.125-.187.263-.388.414-.602 1.011-1.435 2.205-2.87 3.572-4.207 3.854-3.768 8.277-6.005 13.212-6.005z" />
    <path d="m21.333 9.28c-3.122 0-5.653 2.531-5.653 5.653s2.531 5.653 5.653 5.653 5.653-2.531 5.653-5.653-2.531-5.653-5.653-5.653zm0 2.333c1.834 0 3.32 1.486 3.32 3.32s-1.486 3.32-3.32 3.32-3.32-1.486-3.32-3.32 1.486-3.32 3.32-3.32z" />
  </svg>
