
  <svg
    height="32"
    viewBox="0 0 34 32"
    width="34"
    xmlns="http://www.w3.org/2000/svg"
  >
    <path d="m9.371 7.179c.389.579.234 1.364-.346 1.753-2.372 1.59-4.385 3.543-5.943 5.757l-.325.475.377.542.171.235c.801 1.089 1.748 2.18 2.832 3.195 3.054 2.861 6.559 4.558 10.453 4.558 2.757-.04 5.422-.851 7.602-2.31.58-.388 1.364-.233 1.752.347s.233 1.364-.347 1.752c-2.59 1.733-5.732 2.69-8.989 2.737-4.632 0-8.713-1.977-12.198-5.241-1.205-1.128-2.252-2.334-3.14-3.542l-.372-.518c-.34-.487-.585-.876-.733-1.136-.228-.4-.22-.891.02-1.284 1.832-2.997 4.367-5.61 7.433-7.666.579-.388 1.364-.234 1.753.346zm7.237-3.083c4.632 0 8.713 1.977 12.198 5.241 1.205 1.128 2.252 2.334 3.14 3.542.538.731.907 1.308 1.105 1.655.227.399.22.89-.019 1.282-.895 1.47-1.961 2.852-3.18 4.125-.483.504-1.282.521-1.786.038s-.521-1.282-.038-1.786c.729-.761 1.396-1.564 1.996-2.404l.433-.635-.219-.322-.327-.456c-.801-1.089-1.748-2.18-2.832-3.195-3.054-2.861-6.559-4.558-10.474-4.558-.9-.002-1.797.088-2.673.268-.683.14-1.351-.3-1.492-.983s.3-1.351.983-1.492c1.045-.215 2.114-.322 3.184-.32zm-1.98 7.665c.442.54.362 1.336-.178 1.777-.736.602-1.023 1.462-.789 2.267.245.843 1.034 1.536 2.083 1.771 1.08.242 2.222-.052 2.955-.742.508-.478 1.307-.455 1.786.053s.455 1.307-.053 1.786c-1.354 1.276-3.355 1.791-5.24 1.369-1.917-.43-3.444-1.77-3.956-3.531-.523-1.799.111-3.698 1.615-4.928.54-.442 1.336-.362 1.777.178z" />
    <path d="m.314.851c.418-.477 1.116-.563 1.633-.229l.149.113 30.69 26.947c.524.46.576 1.258.116 1.783-.418.477-1.116.563-1.633.229l-.149-.113-30.69-26.947c-.524-.46-.576-1.258-.116-1.783z" />
  </svg>

