  <svg
    fill="none"
    height="40"
    viewBox="0 0 41 40"
    width="40"
    xmlns="http://www.w3.org/2000/svg"
  >
    <path
      clipRule="evenodd"
      d="m13 5.75c-3.72745 0-6.75 3.02255-6.75 6.75v15.0067c0 3.7241 3.01921 6.7433 6.7433 6.7433h8.2567v-12h-2.25c-.4142 0-.75-.3358-.75-.75s.3358-.75.75-.75h2.25v-2.325c0-2.8575 2.3175-5.175 5.175-5.175h1.575c.4142 0 .75.3358.75.75s-.3358.75-.75.75h-1.575c-2.0291 0-3.675 1.6459-3.675 3.675v2.325h5.25c.4142 0 .75.3358.75.75s-.3358.75-.75.75h-5.25v12h5.2567c3.7242 0 6.7433-3.0193 6.7433-6.7417v-15.015c0-3.72409-3.0192-6.7433-6.7433-6.7433zm9 30h6.0067c4.5524 0 8.2433-3.6907 8.2433-8.2417v-15.015c0-4.55251-3.6908-8.2433-8.2433-8.2433h-15.0067c-4.55588 0-8.25 3.69412-8.25 8.25v15.0067c0 4.5525 3.69079 8.2433 8.2433 8.2433z"
      fill="currentColor"
      fillRule="evenodd"
      style={{ stroke: 'none' }}
    />
  </svg>

