
  <svg
    viewBox="0 0 24 24"
    fill="none"
    xmlns="http://www.w3.org/2000/svg"
  >
    <path
      d="M13.574 3.14477C13.062 3.05577 12.538 2.99977 12 2.99977C11.462 2.99977 10.938 3.05577 10.426 3.14477"
      stroke="#2A2A2A"
      stroke-width="1.5"
      stroke-linecap="round"
      stroke-linejoin="round"
    />
    <path
      d="M20.518 8.97266C20.871 9.94166 21.073 10.9827 21.073 12.0727"
      stroke="#2A2A2A"
      stroke-width="1.5"
      stroke-linecap="round"
      stroke-linejoin="round"
    />
    <path
      d="M18.948 6.24268C18.27 5.43568 17.451 4.75268 16.533 4.22168"
      stroke="#2A2A2A"
      stroke-width="1.5"
      stroke-linecap="round"
      stroke-linejoin="round"
    />
    <path
      d="M7.467 4.22168C6.549 4.75268 5.731 5.43568 5.052 6.24268"
      stroke="#2A2A2A"
      stroke-width="1.5"
      stroke-linecap="round"
      stroke-linejoin="round"
    />
    <path
      d="M2.927 12.0727C2.927 10.9817 3.129 9.94066 3.482 8.97266"
      stroke="#2A2A2A"
      stroke-width="1.5"
      stroke-linecap="round"
      stroke-linejoin="round"
    />
    <path
      d="M7.46701 19.9238C8.36701 20.4448 9.36401 20.8138 10.426 20.9998"
      stroke="#2A2A2A"
      stroke-width="1.5"
      stroke-linecap="round"
      stroke-linejoin="round"
    />
    <path
      d="M3.48199 15.1729C3.84799 16.1769 4.37799 17.0999 5.05199 17.9029"
      stroke="#2A2A2A"
      stroke-width="1.5"
      stroke-linecap="round"
      stroke-linejoin="round"
    />
    <path
      d="M13.574 20.9998C14.636 20.8138 15.632 20.4448 16.533 19.9238"
      stroke="#2A2A2A"
      stroke-width="1.5"
      stroke-linecap="round"
      stroke-linejoin="round"
    />
    <path
      d="M18.948 17.9029C19.622 17.0999 20.152 16.1769 20.518 15.1729"
      stroke="#2A2A2A"
      stroke-width="1.5"
      stroke-linecap="round"
      stroke-linejoin="round"
    />
  </svg>

