
  <svg
    version="1.1"
    xmlns="http://www.w3.org/2000/svg"
    width="32"
    height="32"
    viewBox="0 0 32 32"
  >
    <title>flag-us</title>
    <path
      fill="#fff"
      d="M27.429 4.571h-22.857c-2.525 0-4.571 2.047-4.571 4.571v13.714c0 2.525 2.047 4.571 4.571 4.571h22.857c2.525 0 4.571-2.047 4.571-4.571v-13.714c0-2.525-2.047-4.571-4.571-4.571z"
    ></path>
    <path
      fill="#d02f44"
      d="M1.164 6.095c0.837-0.935 2.054-1.524 3.407-1.524h22.857c1.354 0 2.57 0.589 3.408 1.524h-29.672z"
    ></path>
    <path fill="#d02f44" d="M0 10.667v1.524h32v-1.524h-32z"></path>
    <path
      fill="#d02f44"
      d="M31.74 7.619c0.168 0.477 0.26 0.99 0.26 1.524h-32c0-0.534 0.092-1.047 0.26-1.524h31.48z"
    ></path>
    <path fill="#d02f44" d="M32 13.714h-32v1.524h32v-1.524z"></path>
    <path fill="#d02f44" d="M32 16.762h-32v1.524h32v-1.524z"></path>
    <path fill="#d02f44" d="M32 19.81h-32v1.524h32v-1.524z"></path>
    <path
      fill="#d02f44"
      d="M32 22.857h-32c0 0.534 0.092 1.047 0.26 1.524h31.48c0.168-0.477 0.26-0.989 0.26-1.524z"
    ></path>
    <path
      fill="#d02f44"
      d="M30.836 25.905h-29.672c0.837 0.935 2.054 1.524 3.408 1.524h22.857c1.354 0 2.57-0.589 3.408-1.524z"
    ></path>
    <path
      fill="#46467f"
      d="M0 15.238h13.714v-10.667h-9.143c-2.525 0-4.571 2.047-4.571 4.571v6.095z"
    ></path>
    <path
      fill="#fff"
      d="M3.048 6.857c0 0.421-0.341 0.762-0.762 0.762s-0.762-0.341-0.762-0.762c0-0.421 0.341-0.762 0.762-0.762s0.762 0.341 0.762 0.762zM6.095 6.857c0 0.421-0.341 0.762-0.762 0.762s-0.762-0.341-0.762-0.762c0-0.421 0.341-0.762 0.762-0.762s0.762 0.341 0.762 0.762zM8.381 7.619c0.421 0 0.762-0.341 0.762-0.762s-0.341-0.762-0.762-0.762c-0.421 0-0.762 0.341-0.762 0.762s0.341 0.762 0.762 0.762zM12.191 6.857c0 0.421-0.341 0.762-0.762 0.762s-0.762-0.341-0.762-0.762c0-0.421 0.341-0.762 0.762-0.762s0.762 0.341 0.762 0.762zM3.81 9.143c0.421 0 0.762-0.341 0.762-0.762s-0.341-0.762-0.762-0.762c-0.421 0-0.762 0.341-0.762 0.762s0.341 0.762 0.762 0.762zM7.619 8.381c0 0.421-0.341 0.762-0.762 0.762s-0.762-0.341-0.762-0.762c0-0.421 0.341-0.762 0.762-0.762s0.762 0.341 0.762 0.762zM9.905 9.143c0.421 0 0.762-0.341 0.762-0.762s-0.341-0.762-0.762-0.762c-0.421 0-0.762 0.341-0.762 0.762s0.341 0.762 0.762 0.762zM12.191 9.905c0 0.421-0.341 0.762-0.762 0.762s-0.762-0.341-0.762-0.762c0-0.421 0.341-0.762 0.762-0.762s0.762 0.341 0.762 0.762zM8.381 10.667c0.421 0 0.762-0.341 0.762-0.762s-0.341-0.762-0.762-0.762c-0.421 0-0.762 0.341-0.762 0.762s0.341 0.762 0.762 0.762zM6.095 9.905c0 0.421-0.341 0.762-0.762 0.762s-0.762-0.341-0.762-0.762c0-0.421 0.341-0.762 0.762-0.762s0.762 0.341 0.762 0.762zM2.286 10.667c0.421 0 0.762-0.341 0.762-0.762s-0.341-0.762-0.762-0.762c-0.421 0-0.762 0.341-0.762 0.762s0.341 0.762 0.762 0.762zM4.572 11.429c0 0.421-0.341 0.762-0.762 0.762s-0.762-0.341-0.762-0.762c0-0.421 0.341-0.762 0.762-0.762s0.762 0.341 0.762 0.762zM6.857 12.19c0.421 0 0.762-0.341 0.762-0.762s-0.341-0.762-0.762-0.762c-0.421 0-0.762 0.341-0.762 0.762s0.341 0.762 0.762 0.762zM10.667 11.429c0 0.421-0.341 0.762-0.762 0.762s-0.762-0.341-0.762-0.762c0-0.421 0.341-0.762 0.762-0.762s0.762 0.341 0.762 0.762zM11.429 13.714c0.421 0 0.762-0.341 0.762-0.762s-0.341-0.762-0.762-0.762c-0.421 0-0.762 0.341-0.762 0.762s0.341 0.762 0.762 0.762zM9.143 12.952c0 0.421-0.341 0.762-0.762 0.762s-0.762-0.341-0.762-0.762c0-0.421 0.341-0.762 0.762-0.762s0.762 0.341 0.762 0.762zM5.333 13.714c0.421 0 0.762-0.341 0.762-0.762s-0.341-0.762-0.762-0.762c-0.421 0-0.762 0.341-0.762 0.762s0.341 0.762 0.762 0.762zM3.048 12.952c0 0.421-0.341 0.762-0.762 0.762s-0.762-0.341-0.762-0.762c0-0.421 0.341-0.762 0.762-0.762s0.762 0.341 0.762 0.762z"
    ></path>
  </svg>

