
  <svg
    width="24"
    height="25"
    viewBox="0 0 24 25"
    fill="none"
    xmlns="http://www.w3.org/2000/svg"
  >
    <path
      fillRule="evenodd"
      clipRule="evenodd"
      d="M12 21.4404V21.4404C7.029 21.4404 3 17.4114 3 12.4404V12.4404C3 7.46943 7.029 3.44043 12 3.44043V3.44043C16.971 3.44043 21 7.46943 21 12.4404V12.4404C21 17.4114 16.971 21.4404 12 21.4404Z"
      stroke="#121212"
      strokeWidth="1.5"
      strokeLinecap="round"
      strokeLinejoin="round"
    />
    <path
      d="M12 17.4404V12.4404H11"
      stroke="#121212"
      strokeWidth="1.5"
      strokeLinecap="round"
      strokeLinejoin="round"
    />
    <path
      d="M11.749 8.44043C11.611 8.44043 11.499 8.55243 11.5 8.69043C11.5 8.82843 11.612 8.94043 11.75 8.94043C11.888 8.94043 12 8.82843 12 8.69043C12 8.55243 11.888 8.44043 11.749 8.44043"
      stroke="#121212"
      strokeWidth="1.5"
      strokeLinecap="round"
      strokeLinejoin="round"
    />
  </svg>

