<svg
    fill="none"
    height="40"
    viewBox="0 0 41 40"
    width="40"
    xmlns="http://www.w3.org/2000/svg"
  >
    <path
      clipRule="evenodd"
      d="m12.9933 5.75c-3.72564 0-6.7433 3.0191-6.7433 6.7433v15.0134c0 3.7256 3.0191 6.7433 6.7433 6.7433h15.0134c3.7258 0 6.7433-3.0192 6.7433-6.7417v-15.015c0-3.72575-3.0192-6.7433-6.7417-6.7433zm0-1.5h15.015c4.5509 0 8.2417 3.68912 8.2417 8.2433v15.015c0 4.5509-3.6891 8.2417-8.2433 8.2417h-15.0134c-4.55241 0-8.2433-3.689-8.2433-8.2433v-15.0134c0-4.55241 3.68901-8.2433 8.2433-8.2433zm15.7497 6.1885c-.7197.0046-1.3062.5888-1.3062 1.3133 0 .7271.592 1.3117 1.3133 1.3117.7229 0 1.3095-.5853 1.3117-1.3077v-.004h-.75l.75.004c.0039-.7322-.5904-1.3166-1.3119-1.3173h-.0015-.002-.002zm-11.9553 5.8492c2.0502-2.0503 5.3744-2.0503 7.4246 0 2.0503 2.0502 2.0503 5.3744 0 7.4246-2.0502 2.0503-5.3744 2.0503-7.4246 0-2.0503-2.0502-2.0503-5.3744 0-7.4246zm-1.0607-1.0607c2.6361-2.636 6.9099-2.636 9.546 0 2.636 2.6361 2.636 6.9099 0 9.546-2.6361 2.636-6.9099 2.636-9.546 0-2.636-2.6361-2.636-6.9099 0-9.546z"
      fill="currentColor"
      fillRule="evenodd"
      style={{ stroke: 'none' }}
    />
  </svg>

