
  <svg
    viewBox="0 0 25 25"
    fill="none"
    xmlns="http://www.w3.org/2000/svg"
  >
    <g clipPath="url(#clip0_675_17195)">
      <path d="M22.4994 17.42V20.42C22.5006 20.6985 22.4435 20.9742 22.332 21.2293C22.2204 21.4845 22.0567 21.7136 21.8515 21.9019C21.6463 22.0901 21.404 22.2335 21.1402 22.3227C20.8764 22.4119 20.5968 22.4451 20.3194 22.42C17.2423 22.0856 14.2864 21.0341 11.6894 19.35C9.27327 17.8147 7.22478 15.7662 5.68945 13.35C3.99942 10.7412 2.94769 7.77099 2.61944 4.68C2.59446 4.40347 2.62732 4.12476 2.71595 3.86162C2.80457 3.59849 2.94702 3.35669 3.13421 3.15162C3.32141 2.94655 3.54925 2.78271 3.80324 2.67052C4.05722 2.55833 4.33179 2.50026 4.60945 2.5H7.60945C8.09475 2.49522 8.56524 2.66708 8.93321 2.98353C9.30118 3.29999 9.54152 3.73945 9.60944 4.22C9.73607 5.18007 9.97089 6.12273 10.3094 7.03C10.444 7.38792 10.4731 7.77691 10.3934 8.15088C10.3136 8.52485 10.1283 8.86811 9.85944 9.14L8.58945 10.41C10.013 12.9135 12.0859 14.9864 14.5894 16.41L15.8594 15.14C16.1313 14.8711 16.4746 14.6858 16.8486 14.6061C17.2225 14.5263 17.6115 14.5555 17.9694 14.69C18.8767 15.0286 19.8194 15.2634 20.7794 15.39C21.2652 15.4585 21.7088 15.7032 22.026 16.0775C22.3431 16.4518 22.5116 16.9296 22.4994 17.42Z" />
      <path
        d="M15.5494 5.5C16.5262 5.69057 17.4238 6.16826 18.1275 6.87194C18.8312 7.57561 19.3089 8.47326 19.4994 9.45M15.5494 1.5C17.5787 1.72544 19.471 2.63417 20.9157 4.07701C22.3603 5.51984 23.2715 7.41101 23.4994 9.44M22.4994 17.42V20.42C22.5006 20.6985 22.4435 20.9742 22.332 21.2293C22.2204 21.4845 22.0567 21.7136 21.8515 21.9019C21.6463 22.0901 21.404 22.2335 21.1402 22.3227C20.8764 22.4119 20.5968 22.4451 20.3194 22.42C17.2423 22.0856 14.2864 21.0341 11.6894 19.35C9.27327 17.8147 7.22478 15.7662 5.68945 13.35C3.99942 10.7412 2.94769 7.77099 2.61944 4.68C2.59446 4.40347 2.62732 4.12476 2.71595 3.86162C2.80457 3.59849 2.94702 3.35669 3.13421 3.15162C3.32141 2.94655 3.54925 2.78271 3.80324 2.67052C4.05722 2.55833 4.33179 2.50026 4.60945 2.5H7.60945C8.09475 2.49522 8.56524 2.66708 8.93321 2.98353C9.30118 3.29999 9.54152 3.73945 9.60944 4.22C9.73607 5.18007 9.97089 6.12273 10.3094 7.03C10.444 7.38792 10.4731 7.77691 10.3934 8.15088C10.3136 8.52485 10.1283 8.86811 9.85944 9.14L8.58945 10.41C10.013 12.9135 12.0859 14.9864 14.5894 16.41L15.8594 15.14C16.1313 14.8711 16.4746 14.6858 16.8486 14.6061C17.2225 14.5263 17.6115 14.5555 17.9694 14.69C18.8767 15.0286 19.8194 15.2634 20.7794 15.39C21.2652 15.4585 21.7088 15.7032 22.026 16.0775C22.3431 16.4518 22.5116 16.9296 22.4994 17.42Z"
        stroke="currentColor"
        stroke-width="1.5"
        stroke-linecap="round"
        stroke-linejoin="round"
      />
    </g>
    <defs>
      <clipPath id="clip0_675_17195">
        <rect width="24" height="24" transform="translate(0.5 0.5)"/>
      </clipPath>
    </defs>
  </svg>

