  <svg
    viewBox="0 0 17 17"
    fill="none"
    xmlns="http://www.w3.org/2000/svg"
  >
    <path
      fillRule="evenodd"
      clipRule="evenodd"
      d="M8.01139 14.6874L5.34473 15.3541V14.1541C5.34473 14.0874 5.41139 13.9541 5.47806 13.8874L6.67806 12.8208V9.62075L1.81139 11.7541C1.61139 11.8874 1.34473 11.7541 1.34473 11.4874V10.3541C1.34473 10.1541 1.47806 9.95409 1.61139 9.82075L6.67806 6.48742V3.35409C6.67806 2.62075 7.27806 2.02075 8.01139 2.02075C8.74473 2.02075 9.34473 2.62075 9.34473 3.35409V6.48742L14.4114 9.82075C14.6114 9.95409 14.6781 10.1541 14.6781 10.3541V11.4874C14.6781 11.7541 14.4114 11.8874 14.2114 11.8208L9.34473 9.68742V12.8874L10.5447 13.9541C10.6114 14.0208 10.6781 14.0874 10.6781 14.2208V15.3541L8.01139 14.6874Z"
      stroke="currentColor"
      strokeLinecap="round"
      strokeLinejoin="round"
    />
  </svg>

