
  <svg
    fill="none"
    height="47"
    viewBox="0 0 159 47"
    width="159"
    xmlns="http://www.w3.org/2000/svg"
  >
    <path
      d="m152.75 47h-146.875c-3.29 0-5.875-2.585-5.875-5.875v-35.25c0-3.29 2.585-5.875 5.875-5.875h146.875c3.29 0 5.875 2.585 5.875 5.875v35.25c0 3.1725-2.585 5.875-5.875 5.875z"
      fill="#000"
    />
    <path
      d="m152.75.94c2.702 0 4.935 2.2325 4.935 4.935v35.25c0 2.7025-2.233 4.935-4.935 4.935h-146.875c-2.7025 0-4.935-2.2325-4.935-4.935v-35.25c0-2.7025 2.2325-4.935 4.935-4.935zm0-.94h-146.875c-3.29 0-5.875 2.585-5.875 5.875v35.25c0 3.29 2.585 5.875 5.875 5.875h146.875c3.29 0 5.875-2.585 5.875-5.875v-35.25c0-3.1725-2.585-5.875-5.875-5.875z"
      fill="#000"
    />
    <g fill="#fff">
      <path d="m50.6188 13.0001h-1.8808v-6.09451h1.9641c.5912 0 1.0971.12201 1.5177.36603.4206.24204.743.59021.9671 1.04452.2242.45233.3363.99394.3363 1.62482 0 .63484-.1131 1.18144-.3392 1.63974-.2262.4563-.5555.8074-.988 1.0534-.4325.244-.9582.366-1.5772.366zm-1.1428-.6547h1.0952c.5039 0 .9215-.0972 1.2528-.2916s.5783-.4712.741-.8302c.1627-.3591.244-.7867.244-1.28264 0-.49201-.0803-.91557-.241-1.27069-.1607-.3571-.4008-.63088-.7202-.82134-.3194-.19243-.7172-.28865-1.1933-.28865h-1.1785z" />
      <path d="m54.7612 13.0001v-6.09451h3.6781v.65469h-2.9401v2.05929h2.7497v.65473h-2.7497v2.0711h2.9877v.6547z" />
      <path d="m63.1025 8.42923c-.0357-.30156-.1806-.53566-.4345-.7023-.2539-.16665-.5654-.24998-.9344-.24998-.2698 0-.5059.04365-.7083.13094-.2003.08729-.3571.20732-.4702.36008-.1111.15276-.1666.32635-.1666.52077 0 .16268.0387.30255.1161.4196.0793.11506.1805.21128.3035.28866.123.07538.2519.13788.3869.18747.1349.04762.2589.0863.3719.11606l.619.16665c.1587.04166.3353.0992.5297.1726.1964.0734.3839.17362.5625.30052.1805.125.3293.2857.4463.4821.1171.1964.1756.4375.1756.7232 0 .3293-.0863.6269-.2589.8927-.1706.2659-.4206.4771-.7499.6339-.3274.1567-.7251.2351-1.1933.2351-.4365 0-.8144-.0705-1.1338-.2113-.3174-.1409-.5674-.3373-.7499-.5892-.1806-.252-.2827-.5446-.3066-.8779h.7619c.0198.2301.0972.4206.2321.5713.1369.1488.3095.2599.5178.3333.2103.0715.4364.1072.6785.1072.2817 0 .5346-.0457.7588-.1369.2242-.0933.4018-.2222.5327-.3869.1309-.1666.1964-.361.1964-.5832 0-.2024-.0565-.3671-.1696-.494-.1131-.127-.2619-.2302-.4464-.3095-.1845-.0794-.3839-.1488-.5981-.2083l-.75-.2143c-.4761-.13688-.853-.3323-1.1308-.58624-.2777-.25394-.4166-.58624-.4166-.99691 0-.34123.0922-.63881.2767-.89275.1865-.25593.4365-.45432.75-.59517.3154-.14284.6675-.21426 1.0564-.21426.3928 0 .742.07042 1.0475.21128.3055.13887.5475.32933.7261.57136.1805.24204.2758.51681.2857.82432z" />
      <path d="m70.0176 8.81014h-.738c-.0436-.21228-.12-.39877-.2291-.55947-.1072-.16069-.2381-.2956-.3929-.40471-.1527-.1111-.3223-.19442-.5088-.24997s-.3809-.08333-.5833-.08333c-.369 0-.7033.09325-1.0029.27973-.2975.18649-.5346.46126-.7112.82431-.1746.36306-.2619.80844-.2619 1.33616 0 .52774.0873.97314.2619 1.33614.1766.3631.4137.6378.7112.8243.2996.1865.6339.2798 1.0029.2798.2024 0 .3968-.0278.5833-.0834.1865-.0555.3561-.1378.5088-.247.1548-.1111.2857-.247.3929-.4076.1091-.1627.1855-.3492.2291-.5595h.738c-.0555.3115-.1567.5902-.3035.8362s-.3294.4553-.5476.6279c-.2182.1706-.4632.3006-.735.3898-.2698.0893-.5585.134-.866.134-.5198 0-.982-.127-1.3867-.3809-.4048-.254-.7232-.6151-.9553-1.0833s-.3482-1.0237-.3482-1.66644c0-.64278.1161-1.19827.3482-1.66647.2321-.46821.5505-.82928.9553-1.08322.4047-.25393.8669-.3809 1.3867-.3809.3075 0 .5962.04463.866.13391.2718.08927.5168.22021.735.39281.2182.17062.4008.37893.5476.62493.1468.24402.248.52276.3035.83622z" />
      <path d="m71.4602 13.0001h-.7738l2.2379-6.09451h.7618l2.2378 6.09451h-.7737l-1.8212-5.13033h-.0476zm.2856-2.3806h3.1187v.6546h-3.1187z" />
      <path d="m76.8732 13.0001v-6.09451h2.0593c.4762 0 .867.08134 1.1725.24402.3055.1607.5317.3819.6785.66361.1468.28172.2202.60212.2202.9612 0 .35909-.0734.67751-.2202.95525-.1468.27773-.372.49593-.6755.65473-.3036.1567-.6914.2351-1.1636.2351h-1.6665v-.66664h1.6427c.3254 0 .5873-.04761.7856-.14284.2004-.09523.3452-.23013.4345-.40471.0913-.17657.1369-.38687.1369-.63089s-.0456-.45728-.1369-.6398c-.0912-.18252-.2371-.32338-.4374-.42257-.2004-.10118-.4653-.15177-.7946-.15177h-1.2975v5.43982zm2.8688-2.7377 1.4998 2.7377h-.8571l-1.476-2.7377z" />
      <path d="m86.3997 8.81014c-.0655-.20038-.1518-.37992-.2589-.53863-.1052-.1607-.2311-.29759-.378-.41067-.1448-.11308-.3094-.19938-.4939-.2589s-.3869-.08928-.6071-.08928c-.3611 0-.6894.09325-.985.27973-.2956.18649-.5307.46126-.7053.82431-.1746.36306-.2619.80844-.2619 1.33616 0 .52774.0883.97314.2649 1.33614.1765.3631.4156.6378.7172.8243.3015.1865.6408.2798 1.0177.2798.3492 0 .6567-.0744.9225-.2232.2678-.1508.4761-.3631.6249-.6369.1508-.2757.2262-.6001.2262-.9731l.2262.0477h-1.8332v-.65474h2.3212v.65474c0 .5019-.1071.9383-.3214 1.3093-.2123.371-.5059.6587-.8808.863-.373.2024-.8015.3036-1.2856.3036-.5396 0-1.0138-.127-1.4225-.3809-.4067-.254-.7241-.6151-.9522-1.0833-.2262-.4682-.3393-1.0237-.3393-1.66644 0-.48209.0645-.91557.1935-1.30045.1309-.38686.3154-.71618.5535-.98798.238-.27179.5197-.4801.8451-.62493.3254-.14482.6835-.21723 1.0743-.21723.3214 0 .6209.0486.8987.14581.2797.09523.5287.23113.7469.40769.2202.17459.4038.38389.5506.62791.1468.24204.2479.51085.3035.80646z" />
      <path d="m88.523 13.0001h-.7738l2.2379-6.09451h.7618l2.2378 6.09451h-.7737l-1.8212-5.13033h-.0476zm.2856-2.3806h3.1187v.6546h-3.1187z" />
      <path d="m93.936 13.0001v-6.09451h2.0593c.4762 0 .867.08134 1.1725.24402.3055.1607.5317.3819.6785.66361.1468.28172.2202.60212.2202.9612 0 .35909-.0734.67751-.2202.95525-.1468.27773-.372.49593-.6755.65473-.3036.1567-.6914.2351-1.1636.2351h-1.6665v-.66664h1.6427c.3254 0 .5872-.04761.7856-.14284.2004-.09523.3452-.23013.4345-.40471.0913-.17657.1369-.38687.1369-.63089s-.0456-.45728-.1369-.6398c-.0912-.18252-.2371-.32338-.4374-.42257-.2004-.10118-.4653-.15177-.7946-.15177h-1.2975v5.43982zm2.8687-2.7377 1.4999 2.7377h-.8571l-1.476-2.7377z" />
      <path d="m101.653 13.0001v-6.09451h3.678v.65469h-2.94v2.05929h2.75v.65473h-2.75v2.0711h2.988v.6547z" />
      <path d="m111.494 6.90559v6.09451h-.714l-3.321-4.78514h-.059v4.78514h-.738v-6.09451h.714l3.333 4.79711h.059v-4.79711z" />
      <path d="m80.0175 25.6153c-2.82 0-5.0525 2.115-5.0525 5.0525 0 2.82 2.2325 5.0525 5.0525 5.0525s5.0525-2.115 5.0525-5.0525c0-3.055-2.2325-5.0525-5.0525-5.0525zm0 7.99c-1.5275 0-2.82-1.2925-2.82-3.055s1.2925-3.055 2.82-3.055 2.82 1.175 2.82 3.055c0 1.7625-1.2925 3.055-2.82 3.055zm-10.9275-7.99c-2.82 0-5.0525 2.115-5.0525 5.0525 0 2.82 2.2325 5.0525 5.0525 5.0525s5.0525-2.115 5.0525-5.0525c0-3.055-2.2325-5.0525-5.0525-5.0525zm0 7.99c-1.5275 0-2.82-1.2925-2.82-3.055s1.2925-3.055 2.82-3.055 2.82 1.175 2.82 3.055c0 1.7625-1.2925 3.055-2.82 3.055zm-13.0425-6.4625v2.115h5.0525c-.1175 1.175-.5875 2.115-1.175 2.7025-.705.705-1.88 1.5275-3.8775 1.5275-3.1725 0-5.5225-2.4675-5.5225-5.64s2.4675-5.64 5.5225-5.64c1.645 0 2.9375.705 3.8775 1.5275l1.5275-1.5275c-1.2925-1.175-2.9375-2.115-5.2875-2.115-4.23 0-7.8725 3.525-7.8725 7.755s3.6425 7.755 7.8725 7.755c2.35 0 3.995-.705 5.405-2.2325 1.41-1.41 1.88-3.4075 1.88-4.935 0-.47 0-.94-.1175-1.2925zm53.3445 1.645c-.47-1.175-1.645-3.1725-4.23-3.1725s-4.7 1.9975-4.7 5.0525c0 2.82 2.115 5.0525 4.935 5.0525 2.233 0 3.643-1.41 4.113-2.2325l-1.645-1.175c-.588.8225-1.293 1.41-2.468 1.41s-1.88-.47-2.467-1.5275l6.697-2.82zm-6.815 1.645c0-1.88 1.528-2.9375 2.585-2.9375.823 0 1.645.47 1.88 1.0575zm-5.522 4.8175h2.2325v-14.6875h-2.2325zm-3.525-8.5775c-.5875-.5875-1.5275-1.175-2.7025-1.175-2.4675 0-4.8175 2.2325-4.8175 5.0525s2.2325 4.935 4.8175 4.935c1.175 0 2.115-.5875 2.585-1.175h.1175v.705c0 1.88-1.0575 2.9375-2.7025 2.9375-1.2925 0-2.2325-.94-2.4675-1.7625l-1.88.8225c.5875 1.2925 1.9975 2.9375 4.465 2.9375 2.585 0 4.7-1.5275 4.7-5.17v-8.93h-2.115zm-2.585 6.9325c-1.5275 0-2.82-1.2925-2.82-3.055s1.2925-3.055 2.82-3.055 2.7025 1.2925 2.7025 3.055-1.175 3.055-2.7025 3.055zm28.67-13.0425h-5.288v14.6875h2.233v-5.5225h3.055c2.467 0 4.817-1.7625 4.817-4.5825s-2.35-4.5825-4.817-4.5825zm.117 7.05h-3.172v-5.0525h3.172c1.645 0 2.585 1.41 2.585 2.4675-.117 1.2925-1.057 2.585-2.585 2.585zm13.513-2.115c-1.645 0-3.29.705-3.878 2.2325l1.998.8225c.47-.8225 1.175-1.0575 1.997-1.0575 1.175 0 2.233.705 2.35 1.88v.1175c-.352-.235-1.292-.5875-2.232-.5875-2.115 0-4.23 1.175-4.23 3.29 0 1.9975 1.762 3.29 3.642 3.29 1.528 0 2.233-.705 2.82-1.41h.118v1.175h2.115v-5.64c-.235-2.585-2.233-4.1125-4.7-4.1125zm-.235 8.1075c-.705 0-1.763-.3525-1.763-1.2925 0-1.175 1.293-1.5275 2.35-1.5275.94 0 1.41.235 1.998.47-.235 1.41-1.41 2.35-2.585 2.35zm12.337-7.755-2.467 6.345h-.118l-2.585-6.345h-2.35l3.878 8.93-2.233 4.935h2.233l5.992-13.865zm-19.74 9.4h2.233v-14.6875h-2.233z" />
    </g>
    <path
      d="m24.3224 22.7949-12.455 13.2775c.3525 1.41 1.645 2.4675 3.29 2.4675.5875 0 1.175-.1175 1.7625-.47l14.1-8.1075z"
      fill="#ea4335"
    />
    <path
      d="m37.0123 20.5626-6.11-3.525-6.815 6.11 6.815 6.815 5.9925-3.525c1.0575-.5875 1.7625-1.645 1.7625-2.9375.1175-1.2925-.5875-2.35-1.645-2.9375z"
      fill="#fbbc04"
    />
    <path
      d="m11.8675 10.9282c-.1175.235-.1175.5875-.1175.8225v23.5c0 .3525 0 .5875.1175.8225l12.925-12.925z"
      fill="#4285f4"
    />
    <path
      d="m24.44 23.5004 6.4625-6.4625-14.1-8.10745c-.47-.3525-1.0575-.47-1.7625-.47-1.5275 0-2.9375 1.0575-3.29 2.46745z"
      fill="#34a853"
    />
  </svg>

