  <svg
    width="203"
    height="28"
    viewBox="0 0 203 28"
    fill="none"
    xmlns="http://www.w3.org/2000/svg"
  >
    <path
      d="M7.396 6.68C5.5 6.68 3.94 7.4 2.956 8.792L2.74 6.8H0.748001V26.12H2.956V17.888C3.94 19.256 5.428 20.096 7.324 20.096C10.948 20.096 13.42 17.12 13.42 13.328C13.42 9.536 11.02 6.68 7.396 6.68ZM7.012 18.128C4.972 18.128 3.388 16.64 2.956 14.6V12.08C3.388 10.016 4.972 8.528 7.012 8.528C9.604 8.528 11.236 10.64 11.236 13.328C11.236 15.992 9.604 18.128 7.012 18.128ZM22.3403 6.68C19.2203 6.536 18.0683 8 17.5403 9.2L17.3003 6.8H15.2843V20H17.5403V12.848C17.5403 9.8 19.5803 8.408 22.3163 8.576L22.3403 6.68ZM35.494 13.328C35.494 9.416 33.238 6.704 29.566 6.704C25.702 6.704 23.446 9.632 23.446 13.424C23.446 17.144 25.822 20.096 29.59 20.12C33.286 20.144 34.822 17.696 35.062 16.064H33.166C32.734 17.408 31.486 18.368 29.494 18.344C27.67 18.32 25.654 16.904 25.558 14.12H35.446C35.47 13.832 35.494 13.568 35.494 13.328ZM29.566 8.528C31.846 8.528 33.19 10.112 33.43 12.464H25.606C25.894 10.16 27.238 8.528 29.566 8.528ZM52.667 6.68C50.747 6.68 48.875 7.736 47.963 9.224C47.171 7.712 45.923 6.68 44.0511 6.68C42.3951 6.68 40.7391 7.472 39.8751 8.696L39.7791 6.8H37.7631V20H39.9951V11.696C39.9951 9.848 41.6751 8.624 43.4991 8.624C45.275 8.624 46.355 9.776 46.355 11.552V20H48.563V11.696C48.563 9.848 50.267 8.624 52.091 8.624C53.891 8.624 54.923 9.776 54.923 11.552V20H57.155V11.312C57.155 8.456 55.427 6.68 52.667 6.68ZM61.156 4.712C61.924 4.712 62.524 4.112 62.524 3.344C62.524 2.6 61.924 1.976 61.156 1.976C60.436 1.976 59.812 2.6 59.812 3.344C59.812 4.112 60.436 4.712 61.156 4.712ZM60.076 20H62.284V6.8H60.076V20ZM74.514 6.8V14.936C74.514 16.856 72.642 18.152 70.674 18.152C68.754 18.152 67.482 16.856 67.482 14.936V6.8H65.226V15.2C65.226 18.08 67.242 20.144 70.146 20.144C71.85 20.144 73.626 19.304 74.562 18.008L74.778 20H76.746V6.8H74.514ZM94.433 6.68C92.513 6.68 90.641 7.736 89.729 9.224C88.937 7.712 87.689 6.68 85.817 6.68C84.161 6.68 82.505 7.472 81.641 8.696L81.545 6.8H79.529V20H81.761V11.696C81.761 9.848 83.441 8.624 85.265 8.624C87.041 8.624 88.121 9.776 88.121 11.552V20H90.329V11.696C90.329 9.848 92.033 8.624 93.857 8.624C95.657 8.624 96.689 9.776 96.689 11.552V20H98.921V11.312C98.921 8.456 97.193 6.68 94.433 6.68ZM107.074 20.144C110.602 20.144 112.45 17.84 112.906 15.488H110.938C110.506 17.024 109.138 18.248 107.266 18.248C104.698 18.248 103.066 16.328 103.066 13.352C103.066 10.4 104.674 8.528 107.242 8.528C109.162 8.528 110.674 9.704 110.938 11.216H112.954C112.666 8.864 110.602 6.68 107.074 6.68C103.378 6.68 100.906 9.488 100.906 13.352C100.906 17.216 103.378 20.144 107.074 20.144ZM118.682 20.12C120.65 20.12 122.426 19.232 123.122 18.128C123.386 19.28 124.178 19.784 125.258 19.952C125.498 19.976 125.762 20 126.002 20V18.272C125.33 18.296 125.018 17.84 125.018 16.472C125.018 16.136 124.994 13.616 124.994 11.432C124.994 8.384 123.026 6.632 119.882 6.632C116.426 6.632 114.842 8.84 114.602 11.096H116.594C116.786 9.512 118.01 8.432 119.786 8.432C121.73 8.432 122.954 9.368 122.954 11.384V11.816L119.738 12.032C115.946 12.296 114.314 13.976 114.314 16.28C114.314 18.584 116.162 20.12 118.682 20.12ZM118.994 18.344C117.722 18.344 116.378 17.576 116.378 16.232C116.378 14.96 117.218 13.928 119.93 13.712L122.954 13.472V15.488C122.786 17 120.938 18.344 118.994 18.344ZM135.168 6.68C132.048 6.536 130.896 8 130.368 9.2L130.128 6.8H128.112V20H130.368V12.848C130.368 9.8 132.408 8.408 135.144 8.576L135.168 6.68ZM148.322 13.328C148.322 9.416 146.066 6.704 142.394 6.704C138.53 6.704 136.274 9.632 136.274 13.424C136.274 17.144 138.65 20.096 142.418 20.12C146.114 20.144 147.65 17.696 147.89 16.064H145.994C145.562 17.408 144.314 18.368 142.322 18.344C140.498 18.32 138.482 16.904 138.386 14.12H148.274C148.298 13.832 148.322 13.568 148.322 13.328ZM142.394 8.528C144.674 8.528 146.018 10.112 146.258 12.464H138.434C138.722 10.16 140.066 8.528 142.394 8.528Z"
      fill="currentColor"
    />
    <path
      d="M169.19 20V12.384H171.078V11.264H169.19V10.656C169.19 10.128 169.254 9.632 169.686 9.312C170.23 8.928 171.158 9.232 171.494 9.408L171.51 8.288C171.11 8.016 170.358 7.888 169.734 7.968C168.454 8.128 167.766 9.168 167.766 10.48V11.264H166.566V12.384H167.766V20H169.19ZM174.806 20V8H173.414V20H174.806ZM184.777 15.552C184.777 12.944 183.273 11.136 180.825 11.136C178.249 11.136 176.745 13.088 176.745 15.616C176.745 18.096 178.329 20.064 180.841 20.08C183.305 20.096 184.329 18.464 184.489 17.376H183.225C182.937 18.272 182.105 18.912 180.777 18.896C179.561 18.88 178.217 17.936 178.153 16.08H184.745C184.761 15.888 184.777 15.712 184.777 15.552ZM180.825 12.352C182.345 12.352 183.241 13.408 183.401 14.976H178.185C178.377 13.44 179.273 12.352 180.825 12.352ZM193.732 11.2H191.972L189.684 14.56L187.412 11.2H185.652L188.772 15.632L185.652 20H187.428L189.684 16.704L191.972 20H193.732L190.596 15.632L193.732 11.2Z"
      fill="currentColor"
    />
    <path
      d="M198.5 0.5H161.5C159.567 0.5 158 2.067 158 4V24C158 25.933 159.567 27.5 161.5 27.5H198.5C200.433 27.5 202 25.933 202 24V4C202 2.067 200.433 0.5 198.5 0.5Z"
      stroke="currentColor"
    />
  </svg>

