  <svg
    width="24"
    height="24"
    viewBox="0 0 24 24"
    fill="none"
    xmlns="http://www.w3.org/2000/svg"
  >
    <path
      d="M7 10.0001C7.395 9.51512 7.935 9.24012 8.5 9.24012C9.065 9.24012 9.59 9.51512 10 10.0001"
      stroke="#121212"
      strokeWidth="1.5"
      strokeLinecap="round"
      strokeLinejoin="round"
    />
    <path
      d="M14 10.0001C14.395 9.51512 14.935 9.24012 15.5 9.24012C16.065 9.24012 16.59 9.51512 17 10.0001"
      stroke="#121212"
      strokeWidth="1.5"
      strokeLinecap="round"
      strokeLinejoin="round"
    />
    <path
      d="M18.3639 5.63604C21.8787 9.15076 21.8787 14.8492 18.3639 18.3639C14.8492 21.8787 9.15074 21.8787 5.63604 18.3639C2.12132 14.8492 2.12132 9.15074 5.63604 5.63604C9.15076 2.12132 14.8492 2.12132 18.3639 5.63604"
      stroke="#121212"
      strokeWidth="1.5"
      strokeLinecap="round"
      strokeLinejoin="round"
    />
    <path
      d="M15.5 14.688C15.5 14.688 14.187 16 12 16C9.812 16 8.5 14.688 8.5 14.688"
      stroke="#121212"
      strokeWidth="1.5"
      strokeLinecap="round"
      strokeLinejoin="round"
    />
  </svg>

