  <svg
    fill="none"
    height="40"
    viewBox="0 0 41 40"
    width="40"
    xmlns="http://www.w3.org/2000/svg"
  >
    <path
      clipRule="evenodd"
      d="m6.25 12.5c0-3.72745 3.02255-6.75 6.75-6.75h15.0067c3.7241 0 6.7433 3.01921 6.7433 6.7433v15.015c0 3.7224-3.0191 6.7417-6.7433 6.7417h-15.0134c-3.72409 0-6.7433-3.0192-6.7433-6.7433zm21.7567-8.25h-15.0067c-4.55588 0-8.25 3.69412-8.25 8.25v15.0067c0 4.5525 3.69079 8.2433 8.2433 8.2433h15.0134c4.5524 0 8.2433-3.6907 8.2433-8.2417v-15.015c0-4.55251-3.6908-8.2433-8.2433-8.2433zm-16.2788 11.6955c3.0704-.9085 6.6417-1.0552 9.9325-.6664 3.3013.3899 6.2328 1.308 8.0455 2.4544.35.2214.8133.1171 1.0347-.2329.2214-.3501.1171-.8134-.2329-1.0348-2.0691-1.3086-5.2425-2.2713-8.6713-2.6764-3.4392-.4062-7.2229-.262-10.5341.7178-.3972.1175-.6239.5347-.5064.9319s.5348.6239.932.5064zm.7769 4.8604c5.407-1.6848 11.8154-.4634 15.3028 1.7797.3484.2241.8125.1233 1.0365-.225.2241-.3484.1234-.8125-.225-1.0365-3.8559-2.4802-10.7242-3.7689-16.5605-1.9503-.3955.1232-.6162.5437-.493.9391.1233.3955.5437.6162.9392.493zm13.6994 5.982c-3.0988-1.8593-7.2413-2.8294-13.3316-1.463-.4042.0907-.8053-.1634-.896-.5676s.1635-.8053.5676-.896c6.4197-1.4403 10.9639-.4404 14.4318 1.6404.3551.2131.4703.6738.2572 1.0289-.2131.3552-.6738.4704-1.029.2573z"
      fill="currentColor"
      fillRule="evenodd"
      style={{ stroke: 'none' }}
    />
  </svg>

