  <svg
    viewBox="0 0 113 24"
    fill="none"
    xmlns="http://www.w3.org/2000/svg"
  >
    <path
      fillRule="evenodd"
      clipRule="evenodd"
      d="M7.73122 20.8327C7.22415 21.0973 6.61071 21.0507 6.14944 20.7125C5.68817 20.3742 5.45931 19.8032 5.55932 19.24L6.36866 14.6011L2.96124 11.3357C2.54474 10.9385 2.3921 10.3381 2.56833 9.79022C2.74457 9.24234 3.21862 8.84352 3.78858 8.76363L8.51955 8.08735L10.6554 3.82658C10.9087 3.31558 11.4297 2.99231 12 2.99231C12.5703 2.99231 13.0913 3.31558 13.3446 3.82658L15.4805 8.08735L20.2114 8.76363C20.7814 8.84352 21.2554 9.24234 21.4317 9.79022C21.6079 10.3381 21.4553 10.9385 21.0388 11.3357L17.6313 14.6011L18.4407 19.241C18.5407 19.8042 18.3118 20.3752 17.8506 20.7135C17.3893 21.0517 16.7759 21.0983 16.2688 20.8337L12 18.6277L7.73122 20.8327Z"
      stroke="currentColor"
      strokeWidth="1.5"
      strokeLinecap="round"
      strokeLinejoin="round"
    />
    <path
      fillRule="evenodd"
      clipRule="evenodd"
      d="M35.7312 20.8327C35.2242 21.0973 34.6107 21.0507 34.1494 20.7125C33.6882 20.3742 33.4593 19.8032 33.5593 19.24L34.3687 14.6011L30.9612 11.3357C30.5447 10.9385 30.3921 10.3381 30.5683 9.79022C30.7446 9.24234 31.2186 8.84352 31.7886 8.76363L36.5196 8.08735L38.6554 3.82658C38.9087 3.31558 39.4297 2.99231 40 2.99231C40.5703 2.99231 41.0913 3.31558 41.3446 3.82658L43.4805 8.08735L48.2114 8.76363C48.7814 8.84352 49.2554 9.24234 49.4317 9.79022C49.6079 10.3381 49.4553 10.9385 49.0388 11.3357L45.6313 14.6011L46.4407 19.241C46.5407 19.8042 46.3118 20.3752 45.8506 20.7135C45.3893 21.0517 44.7759 21.0983 44.2688 20.8337L40 18.6277L35.7312 20.8327Z"
      stroke="currentColor"
      strokeWidth="1.5"
      strokeLinecap="round"
      strokeLinejoin="round"
    />
    <path
      fillRule="evenodd"
      clipRule="evenodd"
      d="M63.7312 20.8327C63.2242 21.0973 62.6107 21.0507 62.1494 20.7125C61.6882 20.3742 61.4593 19.8032 61.5593 19.24L62.3687 14.6011L58.9612 11.3357C58.5447 10.9385 58.3921 10.3381 58.5683 9.79022C58.7446 9.24234 59.2186 8.84352 59.7886 8.76363L64.5196 8.08735L66.6554 3.82658C66.9087 3.31558 67.4297 2.99231 68 2.99231C68.5703 2.99231 69.0913 3.31558 69.3446 3.82658L71.4805 8.08735L76.2114 8.76363C76.7814 8.84352 77.2554 9.24234 77.4317 9.79022C77.6079 10.3381 77.4553 10.9385 77.0388 11.3357L73.6313 14.6011L74.4407 19.241C74.5407 19.8042 74.3118 20.3752 73.8506 20.7135C73.3893 21.0517 72.7759 21.0983 72.2688 20.8337L68 18.6277L63.7312 20.8327Z"
      stroke="currentColor"
      strokeWidth="1.5"
      strokeLinecap="round"
      strokeLinejoin="round"
    />
    <path
      d="M90.578 21.22C87.146 21.22 84.858 18.998 84.616 16.314H86.53C86.794 17.81 88.004 19.372 90.622 19.372C92.844 19.372 94.538 18.426 94.56 16.49C94.56 14.4 92.206 13.762 90.094 13.014C87.674 12.178 85.122 11.254 85.122 8.592C85.122 5.754 87.872 4.28 90.622 4.28C94.208 4.28 95.968 6.106 96.43 8.812H94.67C94.472 7.382 93.152 5.952 90.644 5.952C88.972 5.952 87.124 6.744 87.124 8.482C87.124 10.176 89.17 10.836 91.106 11.584C93.482 12.508 96.54 13.344 96.54 16.424C96.54 19.548 93.702 21.22 90.578 21.22ZM100.45 4.5H107.27C109.844 4.5 111.89 6.832 111.89 9.406C111.89 11.98 109.844 14.268 107.27 14.268H102.386V21H100.45V4.5ZM102.386 12.64H107.138C108.766 12.64 110.13 11.144 110.13 9.428C110.13 7.734 108.766 6.216 107.138 6.216H102.386V12.64Z"
      fill="currentColor"
    />
  </svg>

