  <svg
    viewBox="0 0 136 24"
    fill="none"
    xmlns="http://www.w3.org/2000/svg"
  >
    <path
      fillRule="evenodd"
      clipRule="evenodd"
      d="M7.73122 20.8327C7.22415 21.0974 6.61071 21.0508 6.14944 20.7125C5.68817 20.3743 5.45931 19.8032 5.55932 19.24L6.36866 14.6011L2.96124 11.3357C2.54474 10.9385 2.3921 10.3381 2.56833 9.79024C2.74457 9.24236 3.21862 8.84354 3.78858 8.76366L8.51955 8.08737L10.6554 3.8266C10.9087 3.31561 11.4297 2.99233 12 2.99233C12.5703 2.99233 13.0913 3.31561 13.3446 3.8266L15.4805 8.08737L20.2114 8.76366C20.7814 8.84354 21.2554 9.24236 21.4317 9.79024C21.6079 10.3381 21.4553 10.9385 21.0388 11.3357L17.6313 14.6011L18.4407 19.241C18.5407 19.8042 18.3118 20.3753 17.8506 20.7135C17.3893 21.0518 16.7759 21.0984 16.2688 20.8337L12 18.6278L7.73122 20.8327Z"
      stroke="currentColor"
      strokeWidth="1.5"
      strokeLinecap="round"
      strokeLinejoin="round"
    />
    <path
      fillRule="evenodd"
      clipRule="evenodd"
      d="M35.7312 20.8327C35.2242 21.0974 34.6107 21.0508 34.1494 20.7125C33.6882 20.3743 33.4593 19.8032 33.5593 19.24L34.3687 14.6011L30.9612 11.3357C30.5447 10.9385 30.3921 10.3381 30.5683 9.79024C30.7446 9.24236 31.2186 8.84354 31.7886 8.76366L36.5196 8.08737L38.6554 3.8266C38.9087 3.31561 39.4297 2.99233 40 2.99233C40.5703 2.99233 41.0913 3.31561 41.3446 3.8266L43.4805 8.08737L48.2114 8.76366C48.7814 8.84354 49.2554 9.24236 49.4317 9.79024C49.6079 10.3381 49.4553 10.9385 49.0388 11.3357L45.6313 14.6011L46.4407 19.241C46.5407 19.8042 46.3118 20.3753 45.8506 20.7135C45.3893 21.0518 44.7759 21.0984 44.2688 20.8337L40 18.6278L35.7312 20.8327Z"
      stroke="currentColor"
      strokeWidth="1.5"
      strokeLinecap="round"
      strokeLinejoin="round"
    />
    <path
      fillRule="evenodd"
      clipRule="evenodd"
      d="M63.7312 20.8327C63.2242 21.0974 62.6107 21.0508 62.1494 20.7125C61.6882 20.3743 61.4593 19.8032 61.5593 19.24L62.3687 14.6011L58.9612 11.3357C58.5447 10.9385 58.3921 10.3381 58.5683 9.79024C58.7446 9.24236 59.2186 8.84354 59.7886 8.76366L64.5196 8.08737L66.6554 3.8266C66.9087 3.31561 67.4297 2.99233 68 2.99233C68.5703 2.99233 69.0913 3.31561 69.3446 3.8266L71.4805 8.08737L76.2114 8.76366C76.7814 8.84354 77.2554 9.24236 77.4317 9.79024C77.6079 10.3381 77.4553 10.9385 77.0388 11.3357L73.6313 14.6011L74.4407 19.241C74.5407 19.8042 74.3118 20.3753 73.8506 20.7135C73.3893 21.0518 72.7759 21.0984 72.2688 20.8337L68 18.6278L63.7312 20.8327Z"
      stroke="currentColor"
      strokeWidth="1.5"
      strokeLinecap="round"
      strokeLinejoin="round"
    />
    <path
      fillRule="evenodd"
      clipRule="evenodd"
      d="M91.7312 20.8327C91.2242 21.0974 90.6107 21.0508 90.1494 20.7125C89.6882 20.3743 89.4593 19.8032 89.5593 19.24L90.3687 14.6011L86.9612 11.3357C86.5447 10.9385 86.3921 10.3381 86.5683 9.79024C86.7446 9.24236 87.2186 8.84354 87.7886 8.76366L92.5196 8.08737L94.6554 3.8266C94.9087 3.31561 95.4297 2.99233 96 2.99233C96.5703 2.99233 97.0913 3.31561 97.3446 3.8266L99.4805 8.08737L104.211 8.76366C104.781 8.84354 105.255 9.24236 105.432 9.79024C105.608 10.3381 105.455 10.9385 105.039 11.3357L101.631 14.6011L102.441 19.241C102.541 19.8042 102.312 20.3753 101.851 20.7135C101.389 21.0518 100.776 21.0984 100.269 20.8337L96 18.6278L91.7312 20.8327Z"
      stroke="currentColor"
      strokeWidth="1.5"
      strokeLinecap="round"
      strokeLinejoin="round"
    />
    <path
      fillRule="evenodd"
      clipRule="evenodd"
      d="M119.731 20.8327C119.224 21.0974 118.611 21.0508 118.149 20.7125C117.688 20.3743 117.459 19.8032 117.559 19.24L118.369 14.6011L114.961 11.3357C114.545 10.9385 114.392 10.3381 114.568 9.79024C114.745 9.24236 115.219 8.84354 115.789 8.76366L120.52 8.08737L122.655 3.8266C122.909 3.31561 123.43 2.99233 124 2.99233C124.57 2.99233 125.091 3.31561 125.345 3.8266L127.48 8.08737L132.211 8.76366C132.781 8.84354 133.255 9.24236 133.432 9.79024C133.608 10.3381 133.455 10.9385 133.039 11.3357L129.631 14.6011L130.441 19.241C130.541 19.8042 130.312 20.3753 129.851 20.7135C129.389 21.0518 128.776 21.0984 128.269 20.8337L124 18.6278L119.731 20.8327Z"
      stroke="currentColor"
      strokeWidth="1.5"
      strokeLinecap="round"
      strokeLinejoin="round"
    />
  </svg>

