  <svg
    height="32"
    viewBox="0 0 34 32"
    width="34"
    xmlns="http://www.w3.org/2000/svg"
  >
    <path
      d="m10.761 9.491-9.751 1.427-.185.042c-.828.256-1.119 1.333-.467 1.969l7.054 6.87-1.663 9.711-.018.189c-.013.866.921 1.477 1.728 1.053l8.721-4.59 8.721 4.59.174.075c.82.28 1.69-.419 1.536-1.318l-1.665-9.711 7.056-6.87.126-.143c.52-.693.124-1.736-.777-1.868l-9.753-1.427-4.36-8.834c-.432-.876-1.681-.876-2.114 0l-4.362 8.834zm5.419-5.649 3.578 7.248.099.165c.185.258.468.433.788.48l8.003 1.17-5.789 5.64-.126.145c-.189.256-.268.58-.213.899l1.365 7.965-7.155-3.762-.213-.087c-.292-.087-.609-.058-.884.087l-7.157 3.762 1.367-7.965.017-.191c.002-.318-.125-.627-.356-.852l-5.792-5.64 8.005-1.17c.383-.056.715-.297.886-.645l3.578-7.248z"
      fill="currentColor"
    />
  </svg>

