  <svg
    viewBox="0 0 169 24"
    fill="none"
    xmlns="http://www.w3.org/2000/svg"
  >
    <path
      fillRule="evenodd"
      clipRule="evenodd"
      d="M7.73122 20.8327C7.22415 21.0973 6.61071 21.0507 6.14944 20.7125C5.68817 20.3742 5.45931 19.8032 5.55932 19.24L6.36866 14.6011L2.96124 11.3357C2.54474 10.9385 2.3921 10.3381 2.56833 9.79022C2.74457 9.24234 3.21862 8.84352 3.78858 8.76363L8.51955 8.08735L10.6554 3.82658C10.9087 3.31558 11.4297 2.99231 12 2.99231C12.5703 2.99231 13.0913 3.31558 13.3446 3.82658L15.4805 8.08735L20.2114 8.76363C20.7814 8.84352 21.2554 9.24234 21.4317 9.79022C21.6079 10.3381 21.4553 10.9385 21.0388 11.3357L17.6313 14.6011L18.4407 19.241C18.5407 19.8042 18.3118 20.3752 17.8506 20.7135C17.3893 21.0517 16.7759 21.0983 16.2688 20.8337L12 18.6277L7.73122 20.8327Z"
      stroke="currentColor"
      strokeWidth="1.5"
      strokeLinecap="round"
      strokeLinejoin="round"
    />
    <path
      fillRule="evenodd"
      clipRule="evenodd"
      d="M35.7312 20.8327C35.2242 21.0973 34.6107 21.0507 34.1494 20.7125C33.6882 20.3742 33.4593 19.8032 33.5593 19.24L34.3687 14.6011L30.9612 11.3357C30.5447 10.9385 30.3921 10.3381 30.5683 9.79022C30.7446 9.24234 31.2186 8.84352 31.7886 8.76363L36.5196 8.08735L38.6554 3.82658C38.9087 3.31558 39.4297 2.99231 40 2.99231C40.5703 2.99231 41.0913 3.31558 41.3446 3.82658L43.4805 8.08735L48.2114 8.76363C48.7814 8.84352 49.2554 9.24234 49.4317 9.79022C49.6079 10.3381 49.4553 10.9385 49.0388 11.3357L45.6313 14.6011L46.4407 19.241C46.5407 19.8042 46.3118 20.3752 45.8506 20.7135C45.3893 21.0517 44.7759 21.0983 44.2688 20.8337L40 18.6277L35.7312 20.8327Z"
      stroke="currentColor"
      strokeWidth="1.5"
      strokeLinecap="round"
      strokeLinejoin="round"
    />
    <path
      fillRule="evenodd"
      clipRule="evenodd"
      d="M63.7312 20.8327C63.2242 21.0973 62.6107 21.0507 62.1494 20.7125C61.6882 20.3742 61.4593 19.8032 61.5593 19.24L62.3687 14.6011L58.9612 11.3357C58.5447 10.9385 58.3921 10.3381 58.5683 9.79022C58.7446 9.24234 59.2186 8.84352 59.7886 8.76363L64.5196 8.08735L66.6554 3.82658C66.9087 3.31558 67.4297 2.99231 68 2.99231C68.5703 2.99231 69.0913 3.31558 69.3446 3.82658L71.4805 8.08735L76.2114 8.76363C76.7814 8.84352 77.2554 9.24234 77.4317 9.79022C77.6079 10.3381 77.4553 10.9385 77.0388 11.3357L73.6313 14.6011L74.4407 19.241C74.5407 19.8042 74.3118 20.3752 73.8506 20.7135C73.3893 21.0517 72.7759 21.0983 72.2688 20.8337L68 18.6277L63.7312 20.8327Z"
      stroke="currentColor"
      strokeWidth="1.5"
      strokeLinecap="round"
      strokeLinejoin="round"
    />
    <path
      fillRule="evenodd"
      clipRule="evenodd"
      d="M91.7312 20.8327C91.2242 21.0973 90.6107 21.0507 90.1494 20.7125C89.6882 20.3742 89.4593 19.8032 89.5593 19.24L90.3687 14.6011L86.9612 11.3357C86.5447 10.9385 86.3921 10.3381 86.5683 9.79022C86.7446 9.24234 87.2186 8.84352 87.7886 8.76363L92.5196 8.08735L94.6554 3.82658C94.9087 3.31558 95.4297 2.99231 96 2.99231C96.5703 2.99231 97.0913 3.31558 97.3446 3.82658L99.4805 8.08735L104.211 8.76363C104.781 8.84352 105.255 9.24234 105.432 9.79022C105.608 10.3381 105.455 10.9385 105.039 11.3357L101.631 14.6011L102.441 19.241C102.541 19.8042 102.312 20.3752 101.851 20.7135C101.389 21.0517 100.776 21.0983 100.269 20.8337L96 18.6277L91.7312 20.8327Z"
      stroke="currentColor"
      strokeWidth="1.5"
      strokeLinecap="round"
      strokeLinejoin="round"
    />
    <path
      fillRule="evenodd"
      clipRule="evenodd"
      d="M119.731 20.8327C119.224 21.0973 118.611 21.0507 118.149 20.7125C117.688 20.3742 117.459 19.8032 117.559 19.24L118.369 14.6011L114.961 11.3357C114.545 10.9385 114.392 10.3381 114.568 9.79022C114.745 9.24234 115.219 8.84352 115.789 8.76363L120.52 8.08735L122.655 3.82658C122.909 3.31558 123.43 2.99231 124 2.99231C124.57 2.99231 125.091 3.31558 125.345 3.82658L127.48 8.08735L132.211 8.76363C132.781 8.84352 133.255 9.24234 133.432 9.79022C133.608 10.3381 133.455 10.9385 133.039 11.3357L129.631 14.6011L130.441 19.241C130.541 19.8042 130.312 20.3752 129.851 20.7135C129.389 21.0517 128.776 21.0983 128.269 20.8337L124 18.6277L119.731 20.8327Z"
      stroke="currentColor"
      strokeWidth="1.5"
      strokeLinecap="round"
      strokeLinejoin="round"
    />
    <path
      d="M149.02 12.574H155.422V14.356V21H154.124L153.728 18.382C152.584 20.186 151.022 21.11 148.184 21.11C143.366 21.11 140.55 17.216 140.55 12.794C140.55 7.822 143.608 4.324 148.118 4.324C151.726 4.324 154.564 6.172 155.07 9.582H153.2C152.584 7.228 150.428 6.128 148.25 6.128C144.598 6.128 142.354 8.812 142.354 12.794C142.354 16.754 144.994 19.328 148.162 19.328C151.814 19.328 153.53 17.238 153.53 14.268H149.02V12.574ZM159.973 21V4.5H161.909V19.262H167.981V21H159.973Z"
      fill="currentColor"
    />
  </svg>

