  <svg
    version="1.1"
    xmlns="http://www.w3.org/2000/svg"
    width="32"
    height="32"
    viewBox="0 0 32 32"
  >
    <title>delete-newcheckout</title>
    <path
      strokeLinejoin="miter"
      strokeLinecap="butt"
      strokeMiterlimit="4"
      strokeWidth="0.3048"
      stroke="#000"
      fill="#000"
      d="M20.139 12.394c-0.388 0-0.703 0.315-0.703 0.703v13.28c0 0.388 0.315 0.703 0.703 0.703s0.703-0.315 0.703-0.703v-13.28c0-0.388-0.315-0.703-0.703-0.703z"
    ></path>
    <path
      strokeLinejoin="miter"
      strokeLinecap="butt"
      strokeMiterlimit="4"
      strokeWidth="0.3048"
      stroke="#000"
      fill="#000"
      d="M11.848 12.394c-0.388 0-0.703 0.315-0.703 0.703v13.28c0 0.388 0.315 0.703 0.703 0.703s0.703-0.315 0.703-0.703v-13.28c0-0.388-0.315-0.703-0.703-0.703z"
    ></path>
    <path
      strokeLinejoin="miter"
      strokeLinecap="butt"
      strokeMiterlimit="4"
      strokeWidth="0.3048"
      stroke="#000"
      fill="#000"
      d="M5.805 10.456v17.311c0 1.023 0.375 1.984 1.031 2.674 0.652 0.691 1.56 1.084 2.511 1.085h13.294c0.95-0.002 1.858-0.394 2.511-1.085 0.655-0.689 1.031-1.65 1.031-2.674v-17.311c1.303-0.346 2.147-1.604 1.973-2.941s-1.313-2.337-2.661-2.337h-3.597v-0.878c0.004-0.739-0.288-1.448-0.811-1.97s-1.233-0.812-1.972-0.806h-6.239c-0.739-0.006-1.449 0.284-1.972 0.806s-0.815 1.231-0.811 1.97v0.878h-3.597c-1.348 0-2.487 1-2.661 2.337s0.67 2.596 1.973 2.941zM22.64 30.121h-13.294c-1.201 0-2.136-1.032-2.136-2.354v-17.249h17.566v17.249c0 1.322-0.935 2.354-2.136 2.354zM11.496 4.299c-0.005-0.366 0.139-0.718 0.399-0.976s0.612-0.4 0.978-0.394h6.239c0.366-0.006 0.719 0.136 0.978 0.394s0.403 0.61 0.399 0.976v0.878h-8.994v-0.878zM6.494 6.583h18.999c0.698 0 1.265 0.566 1.265 1.265s-0.566 1.265-1.265 1.265h-18.999c-0.699 0-1.265-0.566-1.265-1.265s0.566-1.265 1.265-1.265z"
    ></path>
    <path
      strokeLinejoin="miter"
      strokeLinecap="butt"
      strokeMiterlimit="4"
      strokeWidth="0.3048"
      stroke="#000"
      fill="#000"
      d="M15.993 12.394c-0.388 0-0.703 0.315-0.703 0.703v13.28c0 0.388 0.315 0.703 0.703 0.703s0.703-0.315 0.703-0.703v-13.28c0-0.388-0.315-0.703-0.703-0.703z"
    ></path>
  </svg>

