  <svg
    viewBox="0 0 117 117"
    fill="none"
    xmlns="http://www.w3.org/2000/svg"
  >
    <path
      d="M34.125 102.375H82.875C88.2619 102.375 92.625 98.0119 92.625 92.625V46.3125M78 34.125H34.125C28.7381 34.125 24.375 38.4881 24.375 43.875V82.875"
      stroke="currentColor"
      strokeWidth="5"
      strokeLinecap="round"
      strokeLinejoin="round"
    />
    <path
      d="M48.75 48.75H68.25"
      stroke="currentColor"
      strokeWidth="5"
      strokeLinecap="round"
      strokeLinejoin="round"
    />
    <path
      d="M39 102.375V107.25"
      stroke="currentColor"
      strokeWidth="5"
      strokeLinecap="round"
      strokeLinejoin="round"
    />
    <path
      d="M78 102.375V107.25"
      stroke="currentColor"
      strokeWidth="5"
      strokeLinecap="round"
      strokeLinejoin="round"
    />
    <path
      d="M78 34.125V19.5C78 14.1131 73.6369 9.75 68.25 9.75H48.75C43.3631 9.75 39 14.1131 39 19.5V34.125"
      stroke="currentColor"
      strokeWidth="5"
      strokeLinecap="round"
      strokeLinejoin="round"
    />
    <path
      d="M58.5 63.375V75.5625V87.75"
      stroke="currentColor"
      strokeWidth="5"
      strokeLinecap="round"
      strokeLinejoin="round"
    />
    <path
      d="M39 63.375V87.75"
      stroke="currentColor"
      strokeWidth="5"
      strokeLinecap="round"
      strokeLinejoin="round"
    />
    <path
      d="M78 63.375V87.75"
      stroke="currentColor"
      strokeWidth="5"
      strokeLinecap="round"
      strokeLinejoin="round"
    />
    <path
      d="M17.0625 102.375L99.794 26.5378"
      stroke="currentColor"
      strokeWidth="5"
      strokeLinecap="round"
    />
  </svg>

