  <svg
    viewBox="0 0 40 40"
    fill="none"
    xmlns="http://www.w3.org/2000/svg"
  >
    <path
      d="M34.6213 23.3348C33.133 29.8645 27.498 34.6176 20.8108 34.9837C14.1236 35.3499 8.00329 31.2405 5.81092 24.9123C3.61855 18.5841 5.88492 11.5692 11.3654 7.71994C16.8459 3.87069 24.2136 4.119 29.4225 8.32852"
      stroke="#2A2A2A"
      strokeWidth="1.5"
      strokeLinecap="round"
      strokeLinejoin="round"
    />
    <path
      d="M35.0065 13.3339L30.0044 18.3293"
      stroke="#2A2A2A"
      strokeWidth="1.5"
      strokeLinecap="round"
      strokeLinejoin="round"
    />
    <path
      d="M30.0073 13.3306L35.0027 18.3326"
      stroke="#2A2A2A"
      strokeWidth="1.5"
      strokeLinecap="round"
      strokeLinejoin="round"
    />
    <path
      d="M20.0002 19.4482V13.9976"
      stroke="#2A2A2A"
      strokeWidth="1.5"
      strokeLinecap="round"
      strokeLinejoin="round"
    />
    <path
      d="M20 25.4656C19.9287 25.4656 19.8603 25.4941 19.8102 25.5449C19.76 25.5957 19.7323 25.6644 19.7332 25.7357C19.7359 25.8819 19.8538 25.9998 20 26.0025C20.1492 26.0025 20.2701 25.8815 20.2701 25.7324C20.2701 25.5832 20.1492 25.4623 20 25.4623"
      stroke="#2A2A2A"
      strokeWidth="1.5"
      strokeLinecap="round"
      strokeLinejoin="round"
    />
  </svg>
